<?xml version="1.0" encoding="UTF-8" standalone="no"?>
<svg
   xmlns:dc="http://purl.org/dc/elements/1.1/"
   xmlns:cc="http://creativecommons.org/ns#"
   xmlns:rdf="http://www.w3.org/1999/02/22-rdf-syntax-ns#"
   xmlns:svg="http://www.w3.org/2000/svg"
   xmlns="http://www.w3.org/2000/svg"
   viewBox="0 0 480 480"
   height="480"
   width="480"
   xml:space="preserve"
   id="svg2"
   version="1.1"><metadata
     id="metadata8"><rdf:RDF><cc:Work
         rdf:about=""><dc:format>image/svg+xml</dc:format><dc:type
           rdf:resource="http://purl.org/dc/dcmitype/StillImage" /><dc:title></dc:title></cc:Work></rdf:RDF></metadata><defs
     id="defs6"><clipPath
       id="clipPath22"
       clipPathUnits="userSpaceOnUse"><path
         id="path20"
         d="M 0,242.989 H 530.561 V 0 H 0 Z" /></clipPath></defs><g
     transform="matrix(1.3333333,0,0,-1.3333333,0,480.00001)"
     id="g10"><g
       transform="matrix(2.0120934,0,0,2.0120934,-82.538837,-61.905214)"
       id="g987"><path
         id="path78"
         style="fill:#94ce3c;fill-opacity:1;fill-rule:nonzero;stroke:none"
         d="m 108.0508,62.0771 c 4.23,0.111 8.463,0.223 12.25,1.41 4.031,1.263 7.811,3.411 11.074,6.214 0,0 0.938,0.811 1.41,1.511 0.37,0.495 0.514,1.167 1.627,2.001 l 1.313,0.558 c 1.506,0.641 3.252,0.371 4.383,0.462 1.129,0.092 1.761,0.101 3.615,0.326 1.853,0.226 4.93,0.667 7.875,1.275 2.945,0.608 5.758,1.382 8.598,2.399 2.839,1.018 5.707,2.279 8.3,3.556 2.594,1.276 4.912,2.568 6.901,3.898 3.883,2.607 7.047,5.745 10.615,10.244 3.461,4.475 6.703,9.705 8.84,14.588 1.066,2.451 1.869,4.878 2.455,7.103 0.586,2.225 0.957,4.247 1.16,6.167 0.205,1.92 0.244,3.74 0.281,5.035 0.037,1.296 0.076,2.068 0.137,2.59 0.061,0.521 0.143,0.791 0.246,0.779 0.104,-0.012 0.227,-0.304 0.377,-1.477 0.152,-1.173 0.33,-3.227 0.379,-5.91 0.049,-2.681 -0.031,-5.993 -0.297,-8.789 -0.266,-2.796 -0.713,-5.08 -1.357,-7.617 -0.647,-2.537 -1.491,-5.329 -2.678,-8.297 -1.188,-2.968 -2.719,-6.114 -4.326,-8.923 -3.28,-5.623 -6.262,-9.497 -10.596,-13.756 -2.193,-2.145 -6.943,-6.617 -9.662,-8.558 -4.861,-3.469 -8.838,-6.82 -17.596,-9.654 -6.185,-2.002 -15.662,-2.487 -18.748,-2.45 -3.086,0.035 -6.445,0.199 -8.863,0.474 -4.676,0.597 -5.897,1.272 -8.156,1.687 -1.096,0.237 -2.44,0.513 -4.082,1.028 -1.643,0.515 -3.584,1.268 -5.475,2.126" /><path
         id="path82"
         style="fill:#94ce3c;fill-opacity:1;fill-rule:nonzero;stroke:none"
         d="m 83.7402,149.5703 c 1,2.418 2.729,5.7 4.926,9.078 2.199,3.377 4.867,6.85 7.777,9.863 2.91,3.014 6.059,5.568 9.772,7.936 3.713,2.367 7.988,4.549 12.029,6.195 4.041,1.647 7.848,2.758 11.918,3.426 4.068,0.668 8.398,0.894 12.512,0.734 4.111,-0.16 8.004,-0.703 11.779,-1.736 3.773,-1.033 7.43,-2.557 9.517,-3.449 2.086,-0.895 2.602,-1.159 3.727,-1.686 1.125,-0.525 2.856,-1.314 4.592,-2.093 -1.113,1.281 -2.24,2.224 -3.111,2.756 -0.379,0.277 -0.774,0.632 -2.975,2.015 -2.201,1.384 -6.211,3.795 -10.703,5.748 -4.494,1.953 -9.475,3.45 -14.295,4.369 -4.82,0.92 -9.483,1.262 -14.199,1.256 -4.715,-0.006 -9.485,-0.361 -13.924,-1.219 -4.438,-0.857 -8.547,-2.218 -12.508,-3.992 -3.963,-1.775 -7.777,-3.963 -11.357,-6.56 -3.581,-2.6 -6.924,-5.61 -10.004,-9.077 -3.08,-3.466 -5.897,-7.389 -8.625,-12.107 -2.729,-4.717 -5.369,-10.228 -7.568,-15.904 2.73,-1.981 5.61,-3.414 8.603,-4.478 0.08,1.071 0.161,2.142 0.385,2.64 0.419,0.814 1.202,0.201 1.837,0.185 2.508,-0.466 5.005,-0.989 7.495,-1.546 0.32,0.693 0.587,1.408 0.859,2.542 0.27,1.134 0.541,2.687 1.541,5.104" /><path
         id="path86"
         style="fill:#346816;fill-opacity:1;fill-rule:nonzero;stroke:none"
         d="m 128.2539,114.918 c 10.529,-5.439 9.721,-26.36 6.24,-39.12 -2.951,3.53 -2.349,10.61 -3.84,15.6 -1.531,-0.77 -0.24,-3.69 -1.201,-4.56 -4.289,6.51 -9.91,11.69 -16.08,16.32 -0.01,2.15 -0.549,3.77 -0.959,5.52 -0.849,-0.75 -0.66,-2.54 -0.721,-4.08 -7.638,4.04 -14.679,8.68 -23.039,12 -0.49,0.95 -0.41,2.48 -1.201,3.12 -0.539,-0.47 -0.199,-1.81 -0.478,-1.92 -3.532,0.641 -6.891,3.511 -11.041,4.321 1.83,-1.85 5.791,-3.651 8.881,-5.041 0.33,-0.309 0.148,-1.13 0.478,-1.44 5.211,-0.93 9.272,-3.82 13.441,-6.24 3.52,-2.04 7.19,-3.85 9.6,-6.72 -1.471,-0.13 -3.019,-0.15 -4.56,-0.72 2.121,-1.95 5.8,-0.37 8.16,-1.439 1.461,-0.661 3.349,-2.731 4.8,-4.08 4.309,-4.031 8.5,-9.511 10.799,-15.121 -3.728,0.32 -7.949,1.26 -12,0.48 3.391,-1.97 9.221,-1.5 12.721,-3.359 1.17,-1.951 1.52,-4.721 1.439,-7.92 -5.209,-4.371 -12.619,-7.381 -21.839,-6.721 -10.02,0.721 -18.311,4.96 -23.28,10.32 1.09,0.67 3.071,0.45 3.119,2.16 -3.4,1.52 -6.919,2.55 -10.08,4.32 -6.46,3.62 -12.15,7.82 -15.839,14.4 1.7,0.46 3.959,0.36 4.799,1.68 -2.059,2.98 -5.559,4.6 -8.159,7.2 -4.27,4.27 -7.11,10.09 -8.16,16.8 1.039,0.56 2.26,-0.62 3.359,0 0.17,1.47 -1.259,2.131 -1.92,3.361 -3.759,6.99 -3.52,23.4 0,30.481 -0.07,0.388 0.23,0.408 0.241,0.718 0.279,0.041 0.429,-0.049 0.48,-0.24 4.48,-7.92 10.91,-13.889 20.64,-16.559 1.28,0.53 -0.33,2.549 0.479,3.36 8.641,-2.151 18.09,-2.74 23.282,-8.401 0.798,-0.878 0.789,-2.179 2.16,-2.64 1.179,0.5 0.398,2.961 0.959,4.08 9.881,-1.799 16.929,-8.229 21.84,-15.84 1.65,-2.55 2.81,-5.479 4.8,-7.92 1.241,0.6 0.539,3.14 1.68,3.84" /><path
         id="path90"
         style="fill:#94ce3c;fill-opacity:1;fill-rule:nonzero;stroke:none"
         d="m 197.6348,166.6543 c -0.135,0.139 -0.26,0.119 -0.414,0.104 4.199,-7.241 7.465,-15.047 9.406,-22.32 1.942,-7.271 2.563,-14.009 2.301,-20.905 -0.26,-6.898 -1.4,-13.954 -3.486,-20.636 -2.086,-6.682 -5.118,-12.99 -9.01,-18.808 -3.895,-5.819 -8.651,-11.149 -14.076,-15.978 -5.428,-4.829 -11.526,-9.157 -18.047,-12.201 -6.52,-3.045 -13.463,-4.805 -20.498,-5.835 -7.035,-1.03 -14.162,-1.33 -21.971,-0.145 -7.81,1.186 -16.301,3.858 -20.691,5.19 -4.393,1.331 -4.686,1.323 -4.967,1.238 2.06,-1.404 4.283,-2.554 8.185,-4.09 3.905,-1.536 9.491,-3.459 15.612,-4.566 6.119,-1.108 12.775,-1.4 19.57,-1.15 6.795,0.249 13.729,1.04 20.074,3.137 6.346,2.096 12.104,5.496 17.199,8.872 5.094,3.376 9.526,6.728 14.977,12.98 5.451,6.251 11.922,15.403 15.725,26.225 3.804,10.823 4.939,23.318 4.312,32.912 -0.629,9.595 -3.021,16.292 -5.574,21.86 -2.566,5.63 -5.359,10.083 -8.627,14.116" /></g></g></svg>