<svg id="Lager_1" data-name="Lager 1" xmlns="http://www.w3.org/2000/svg" xmlns:xlink="http://www.w3.org/1999/xlink" width="490.46" height="490.47" viewBox="0 0 490.46 490.47">
  <defs>
    <style>
      .cls-1, .cls-2, .cls-3 {
        fill: none;
      }

      .cls-2, .cls-3 {
        clip-path: url(#clip-path);
      }

      .cls-3 {
        clip-rule: evenodd;
      }

      .cls-4 {
        clip-path: url(#clip-path-48);
      }

      .cls-5 {
        fill: #fcc00a;
      }

      .cls-6 {
        clip-path: url(#clip-path-49);
      }

      .cls-7 {
        fill: #fff;
      }

      .cls-8 {
        clip-path: url(#clip-path-50);
      }

      .cls-9 {
        clip-path: url(#clip-path-51);
      }

      .cls-10 {
        clip-path: url(#clip-path-52);
      }

      .cls-11 {
        clip-path: url(#clip-path-53);
      }

      .cls-12 {
        clip-path: url(#clip-path-54);
      }

      .cls-13 {
        clip-path: url(#clip-path-55);
      }

      .cls-14 {
        clip-path: url(#clip-path-56);
      }

      .cls-15 {
        clip-path: url(#clip-path-57);
      }

      .cls-16 {
        clip-path: url(#clip-path-58);
      }

      .cls-17 {
        clip-path: url(#clip-path-59);
      }

      .cls-18 {
        clip-path: url(#clip-path-60);
      }

      .cls-19 {
        clip-path: url(#clip-path-61);
      }

      .cls-20 {
        clip-path: url(#clip-path-62);
      }

      .cls-21 {
        clip-path: url(#clip-path-63);
      }

      .cls-22 {
        clip-path: url(#clip-path-64);
      }

      .cls-23 {
        clip-path: url(#clip-path-65);
      }

      .cls-24 {
        clip-path: url(#clip-path-66);
      }

      .cls-25 {
        clip-path: url(#clip-path-67);
      }

      .cls-26 {
        clip-path: url(#clip-path-68);
      }

      .cls-27 {
        clip-path: url(#clip-path-69);
      }

      .cls-28 {
        clip-path: url(#clip-path-70);
      }

      .cls-29 {
        clip-path: url(#clip-path-71);
      }

      .cls-30 {
        clip-path: url(#clip-path-72);
      }

      .cls-31 {
        clip-path: url(#clip-path-73);
      }

      .cls-32 {
        clip-path: url(#clip-path-74);
      }

      .cls-33 {
        clip-path: url(#clip-path-75);
      }

      .cls-34 {
        clip-path: url(#clip-path-76);
      }

      .cls-35 {
        clip-path: url(#clip-path-77);
      }

      .cls-36 {
        fill: #d7d7d7;
      }

      .cls-37 {
        clip-path: url(#clip-path-78);
      }

      .cls-38 {
        fill: #ebebeb;
      }

      .cls-39 {
        clip-path: url(#clip-path-79);
      }

      .cls-40 {
        clip-path: url(#clip-path-80);
      }

      .cls-41 {
        clip-path: url(#clip-path-81);
      }

      .cls-42 {
        clip-path: url(#clip-path-82);
      }

      .cls-43 {
        clip-path: url(#clip-path-83);
      }

      .cls-44 {
        clip-path: url(#clip-path-84);
      }

      .cls-45 {
        clip-path: url(#clip-path-85);
      }

      .cls-46 {
        clip-path: url(#clip-path-86);
      }

      .cls-47 {
        clip-path: url(#clip-path-87);
      }

      .cls-48 {
        clip-path: url(#clip-path-88);
      }

      .cls-49 {
        clip-path: url(#clip-path-89);
      }

      .cls-50 {
        clip-path: url(#clip-path-90);
      }

      .cls-51 {
        clip-path: url(#clip-path-91);
      }

      .cls-52 {
        clip-path: url(#clip-path-92);
      }

      .cls-53 {
        clip-path: url(#clip-path-93);
      }

      .cls-54 {
        clip-path: url(#clip-path-94);
      }

      .cls-55 {
        clip-path: url(#clip-path-95);
      }
    </style>
    <clipPath id="clip-path">
      <rect class="cls-1" x="-10.27" y="-9.3" width="481" height="481"/>
    </clipPath>
    <clipPath id="clip-path-48" transform="translate(15 14)">
      <polygon class="cls-2" points="233.89 -6.03 254.31 10.51 277.76 -1.24 281.96 -3.34 284.89 0.34 301.25 20.85 326.71 14.43 331.25 13.28 333.32 17.5 344.91 41.09 371.15 40.3 375.83 40.15 376.95 44.74 383.19 70.23 408.98 75.1 413.59 75.97 413.7 80.68 414.33 106.94 438.47 117.25 442.8 119.09 441.9 123.71 436.88 149.5 458.22 164.75 462.03 167.48 460.17 171.79 449.73 195.9 467.33 215.42 470.46 218.9 467.72 222.71 452.34 244.01 465.33 266.85 467.65 270.94 464.14 274.07 444.56 291.56 452.34 316.65 453.73 321.13 449.64 323.44 426.77 336.29 428.98 362.49 429.37 367.14 424.87 368.52 399.76 376.15 396.3 402.19 395.68 406.87 390.98 407.24 364.85 409.3 355.88 433.98 354.27 438.4 349.62 437.75 323.64 434.12 309.58 456.31 307.05 460.29 302.64 458.65 278.03 449.52 259.56 468.14 256.24 471.47 252.31 468.93 230.23 454.71 208.17 468.93 204.23 471.47 200.92 468.14 182.43 449.52 157.82 458.65 153.42 460.29 150.89 456.31 136.82 434.12 110.84 437.75 106.2 438.4 104.58 433.98 95.62 409.3 69.48 407.24 64.79 406.87 64.17 402.19 60.71 376.15 35.6 368.52 31.09 367.14 31.48 362.49 33.7 336.29 10.83 323.44 6.74 321.13 8.12 316.65 15.91 291.56 -3.68 274.07 -7.18 270.94 -4.86 266.85 8.13 244.01 -7.25 222.71 -10 218.9 -6.86 215.42 10.73 195.9 0.29 171.79 -1.57 167.48 2.25 164.75 23.59 149.5 18.57 123.71 17.67 119.09 21.99 117.25 46.13 106.94 46.76 80.68 46.88 75.97 51.48 75.1 77.27 70.23 83.51 44.74 84.64 40.15 89.31 40.3 115.55 41.09 127.14 17.5 129.22 13.28 133.76 14.43 159.22 20.85 175.57 0.34 178.51 -3.34 182.71 -1.24 206.16 10.51 226.57 -6.03 230.23 -9 233.89 -6.03 233.89 -6.03 233.89 -6.03"/>
    </clipPath>
    <clipPath id="clip-path-49" transform="translate(15 14)">
      <polygon class="cls-3" points="249.88 21.9 230.23 5.99 210.59 21.9 207.69 24.25 204.34 22.57 181.73 11.25 165.96 31.03 163.62 33.97 160.01 33.06 135.48 26.87 124.32 49.58 122.68 52.92 118.96 52.81 93.67 52.04 87.65 76.61 86.76 80.26 83.08 80.96 58.24 85.65 57.64 110.96 57.55 114.71 54.12 116.18 30.87 126.1 35.71 150.95 36.42 154.61 33.37 156.8 12.8 171.5 22.86 194.73 24.35 198.16 21.86 200.93 4.91 219.73 19.72 240.25 21.91 243.27 20.06 246.51 7.55 268.5 26.42 285.35 29.21 287.84 28.1 291.4 20.6 315.59 42.65 327.98 45.92 329.81 45.6 333.53 43.47 358.78 67.64 366.13 71.22 367.21 71.71 370.93 75.04 396 100.23 397.98 103.97 398.27 105.25 401.8 113.9 425.59 138.94 422.09 142.64 421.57 144.64 424.73 158.19 446.08 181.88 437.29 185.37 435.99 188.01 438.65 205.83 456.6 227.1 442.9 230.23 440.87 233.37 442.9 254.64 456.6 272.45 438.65 275.09 435.99 278.59 437.29 302.28 446.08 315.82 424.73 317.82 421.57 321.53 422.09 346.57 425.59 355.21 401.8 356.49 398.27 360.24 397.98 385.42 396 388.75 370.93 389.24 367.21 392.82 366.13 416.99 358.78 414.86 333.53 414.55 329.81 417.82 327.98 439.86 315.59 432.36 291.4 431.25 287.84 434.04 285.35 452.91 268.5 440.4 246.51 438.56 243.27 440.74 240.25 455.56 219.73 438.61 200.93 436.11 198.16 437.6 194.73 447.67 171.5 427.1 156.8 424.04 154.61 424.75 150.95 429.6 126.1 406.35 116.18 402.92 114.71 402.83 110.96 402.22 85.65 377.38 80.96 373.7 80.26 372.81 76.61 366.8 52.04 341.51 52.81 337.78 52.92 336.14 49.57 324.99 26.87 300.46 33.06 296.84 33.97 294.5 31.03 278.74 11.25 256.13 22.57 252.77 24.25 249.88 21.9 249.88 21.9 249.88 21.9"/>
    </clipPath>
    <clipPath id="clip-path-50" transform="translate(15 14)">
      <path class="cls-2" d="M343.15,365.44c.77,2.95-1.13,6.7-3.55,8.24-1.57.73-2.2-5.66-.66-7.89s3.69-2.29,4.21-.35Zm-5-3.24c-6.69,3.14-9.83,8.74-7.72,17.08,3.68,12.36,22.32,6.49,24.82-7.64.39-1.7-1.66-2.49-2.21-.84-2.23,4.38-4.35,7.89-7.2,8.28-2.74.62-6.63-2.22-4.62-3.17,7.35-4.71,7.08-9.69,6.94-11.12-.89-4.34-4.43-5.22-10-2.6Z"/>
    </clipPath>
    <clipPath id="clip-path-51" transform="translate(15 14)">
      <path class="cls-2" d="M160.59,367.54c-.52-2.38-9.69-4.76-14.4-5.44-1.24-.19-2.48-.08-2.36,1.85s.21,3.94-.26,4.94c-3,6.47-8.18,11.33-12.41,15.14-2.93,2.67-5.93,5.43-5.33,6.83s1.94,1.41,12.2,5.83c1,.47,1.47.44,2.29-.68,6.95-10.17,16.74-20.21,20.26-18.57,1,.63,1,2.08,1.07,2.53-.48,6.73,14,3.88,14.33-2.89.5-6.52-6.24-8.77-18.59-2.37,3-4.42,3.58-6,3.22-7.17Z"/>
    </clipPath>
    <clipPath id="clip-path-52" transform="translate(15 14)">
      <path class="cls-2" d="M215.82,402c.8,7.69-17.83,13.37-26.73,4.5-1.81-1.8-3.55-5.63-1.89-8.14a1.63,1.63,0,0,1,2-.51c7.86,1.32,11.7,1.5,16.33-.08,7.84-2.77,11.22-9.76,5.12-15.41-2.48-2.23-13.1-7.61-25-4.93-.45.12-11.65,2.61-15.25,13.58-2.32,7.12-.75,13.09,4.93,17.77a34.16,34.16,0,0,0,14.07,6.41c19.76,2.5,25.7-8.37,28.74-4.08q-1.21-4.56-2.36-9.11Zm-11.5-19.29c2.27,1.41,2.79,4,.38,6.81-3.08,3.68-14.88,6.44-16.38,3.76-2.31-4.17,10.76-13.79,16-10.62l0,.06Z"/>
    </clipPath>
    <clipPath id="clip-path-53" transform="translate(15 14)">
      <path class="cls-2" d="M259.51,399c1,5.07-3.26,11.21-8.94,13.4-8.77,3.41-17.7-1.74-18.25-12a19.41,19.41,0,0,1,3.09-10.86C238.7,384.8,247,383,245.35,388c-.21,1.86-1.86,2.82-1.41,5.31.5,3.37,7.16,3.73,9.62.51,5.11-7.43-3.42-13.5-16-12.72-11.69.68-21.7,9-21.77,20.91q1.14,4.55,2.33,9.1c7.67,12.6,28.61,9.85,36,3.28,2.29-2,6.94-7.42,9.58-5.65q-2.12-4.9-4.21-9.77Z"/>
    </clipPath>
    <clipPath id="clip-path-54" transform="translate(15 14)">
      <path class="cls-2" d="M300,387.85c-2-16.48-20.06-18.8-33.5-7.61-4.76,4.21-8,12.32-7,18.75q1.52,4.31,3.08,8.62c3.81,4,9.22,6.25,17.85,5.36,12.33-1.06,20.85-12.26,19.58-25.12Zm-5.69,4.4c-1.08,14.29-17.57,19.5-21.19,6.18-3-11.13,6.83-24,16.11-19.18,3.36,1.75,5.49,7.18,5.08,13Z"/>
    </clipPath>
    <clipPath id="clip-path-55" transform="translate(15 14)">
      <path class="cls-2" d="M305.94,397.08a3.88,3.88,0,0,0-3.58,4.4,4.35,4.35,0,0,0,4.84,3.6,3.88,3.88,0,0,0,3.54-4.54,4.32,4.32,0,0,0-4.8-3.46Z"/>
    </clipPath>
    <clipPath id="clip-path-56" transform="translate(15 14)">
      <path class="cls-2" d="M316.76,397.62c4.39,1.8,12.41-1.79,14.31-5.83a6.25,6.25,0,0,0-4.35-9.41c-4.66-.77-7.24-1.82-7.83-3.06-1.49-3.15,3.83-4.69,3.47-1.68s5.11,3.45,5.35-.63a4.27,4.27,0,0,0-1.5-3.14c-3.51-2.76-9.52.18-12.84,3.37-3.88,3.73-2,9.18,3.23,10.31,3.28.76,5.81,1.13,6.69,3.47,1.28,2.59-2.38,3.67-3.55,1.3-1.72-2.67-3.91-3.21-5.73-1.19s.27,5.33,2.75,6.49Z"/>
    </clipPath>
    <clipPath id="clip-path-57" transform="translate(15 14)">
      <path class="cls-2" d="M77.79,242.47l.75,4.58,10.24-1.63.94,5.75-28,4.51L60,245.3a16,16,0,0,1-.16-4.42A9.16,9.16,0,0,1,61,237.43,7.15,7.15,0,0,1,63.29,235a8.91,8.91,0,0,1,3.54-1.3,10.24,10.24,0,0,1,2.82-.1,7.28,7.28,0,0,1,4.25,2,10.38,10.38,0,0,1,1.57,1.87l10.45-7.88.27,0,1,6.17-9.4,6.83Zm-3.93,5.33-.75-4.64a6.1,6.1,0,0,0-.62-1.94,3.86,3.86,0,0,0-1.07-1.28A3.57,3.57,0,0,0,70,239.3a4.81,4.81,0,0,0-1.73,0,4.34,4.34,0,0,0-2.93,1.63,4.71,4.71,0,0,0-.57,3.62l.75,4.62,8.38-1.37Z"/>
    </clipPath>
    <clipPath id="clip-path-58" transform="translate(15 14)">
      <polygon class="cls-2" points="73.9 208.63 73.9 219.82 81.5 219.82 81.56 206.69 86.25 206.69 86.16 225.64 57.8 225.53 57.88 206.62 62.62 206.62 62.56 219.7 69.31 219.7 69.36 208.52 73.9 208.63 73.9 208.63"/>
    </clipPath>
    <clipPath id="clip-path-59" transform="translate(15 14)">
      <polygon class="cls-2" points="76.89 192.34 79.6 195.89 87.58 197.27 86.58 203.01 58.65 198.17 59.64 192.43 72.31 194.62 69.27 191.49 61.32 182.84 62.55 175.78 73.23 187.82 90.53 180.32 89.34 187.15 76.89 192.34 76.89 192.34"/>
    </clipPath>
    <clipPath id="clip-path-60" transform="translate(15 14)">
      <path class="cls-2" d="M86.51,152a18.07,18.07,0,0,1,5.2,2.83A12.59,12.59,0,0,1,95,158.69a10.68,10.68,0,0,1,1.27,4.51,12.82,12.82,0,0,1-3.37,9.15A10.91,10.91,0,0,1,89,174.94a12.71,12.71,0,0,1-5,.86,17.73,17.73,0,0,1-5.78-1.17L77,174.2a17.94,17.94,0,0,1-5.2-2.84,12.86,12.86,0,0,1-3.28-3.84A10.67,10.67,0,0,1,67.26,163a12.82,12.82,0,0,1,3.37-9.15,10.73,10.73,0,0,1,3.92-2.59,12.88,12.88,0,0,1,5-.81,17.94,17.94,0,0,1,5.77,1.18l1.2.42Zm-3.25,5.1q-4.19-1.54-6.93-.86a5.61,5.61,0,0,0-3.15,8.53q1.62,2.29,5.81,3.82l1.2.44A16.5,16.5,0,0,0,84,170a8.78,8.78,0,0,0,3.1-.15,5.21,5.21,0,0,0,2.31-1.21,5.63,5.63,0,0,0,1.46-2.26,5.12,5.12,0,0,0-.62-5q-1.65-2.28-5.83-3.81l-1.19-.41Z"/>
    </clipPath>
    <clipPath id="clip-path-61" transform="translate(15 14)">
      <polygon class="cls-2" points="81.04 131.11 102.29 135.99 88.84 118.88 92.97 112.43 116.89 127.61 113.74 132.54 107.21 128.39 96.23 120.74 109.94 138.49 107.8 141.86 85.89 136.98 97.47 143.64 104.01 147.79 100.87 152.71 76.94 137.53 81.04 131.11 81.04 131.11"/>
    </clipPath>
    <clipPath id="clip-path-62" transform="translate(15 14)">
      <polygon class="cls-2" points="105.9 98.06 125.4 107.81 116.38 88.03 121.91 82.72 141.51 103.09 137.29 107.14 131.92 101.57 123.1 91.53 132.24 112 129.38 114.8 109.24 104.91 118.92 114.1 124.3 119.67 120.09 123.71 100.44 103.34 105.9 98.06 105.9 98.06"/>
    </clipPath>
    <clipPath id="clip-path-63" transform="translate(15 14)">
      <polygon class="cls-2" points="153.82 80.84 144.37 86.89 148.45 93.26 159.54 86.19 162.07 90.14 146.05 100.33 130.81 76.49 146.79 66.32 149.34 70.3 138.28 77.33 141.91 83.01 151.37 76.96 153.82 80.84 153.82 80.84"/>
    </clipPath>
    <clipPath id="clip-path-64" transform="translate(15 14)">
      <polygon class="cls-2" points="186.66 79.55 181.26 81.77 163.63 68.89 170.74 86.08 165.34 88.3 154.52 62.13 159.92 59.91 177.6 72.85 170.47 55.62 175.86 53.4 186.66 79.55 186.66 79.55"/>
    </clipPath>
    <clipPath id="clip-path-65" transform="translate(15 14)">
      <path class="cls-2" d="M191.79,78.1l-5.72-27.67,8.55-1.73a13.69,13.69,0,0,1,5.34-.1,11.8,11.8,0,0,1,4.56,1.88A12.62,12.62,0,0,1,208,54.13,15.3,15.3,0,0,1,210,59.32l.26,1.25a15.33,15.33,0,0,1,.19,5.58,12.32,12.32,0,0,1-1.73,4.7,11.85,11.85,0,0,1-3.47,3.52,13.89,13.89,0,0,1-5,2l-8.53,1.71Zm1-24.21,3.82,18.48,2.77-.57A6.33,6.33,0,0,0,204,68.51a10.26,10.26,0,0,0,.45-6.74l-.27-1.3q-.87-4.23-3.08-6.05a6.32,6.32,0,0,0-5.58-1.12l-2.82.6Z"/>
    </clipPath>
    <clipPath id="clip-path-66" transform="translate(15 14)">
      <polygon class="cls-2" points="234.18 60.52 222.99 60.93 223.27 68.5 236.42 68.01 236.59 72.69 217.59 73.37 216.54 45.12 235.49 44.42 235.66 49.14 222.54 49.62 222.79 56.36 234 55.94 234.18 60.52 234.18 60.52"/>
    </clipPath>
    <clipPath id="clip-path-67" transform="translate(15 14)">
      <path class="cls-2" d="M252.08,64l-4.61-.61-1.34,10.26-5.8-.76,3.68-28,10.4,1.37a16.05,16.05,0,0,1,4.33,1.12,9.22,9.22,0,0,1,3.05,2,7.15,7.15,0,0,1,1.73,2.91,8.87,8.87,0,0,1,.23,3.75,10.24,10.24,0,0,1-.71,2.71,7.26,7.26,0,0,1-3.09,3.5,10.42,10.42,0,0,1-2.3,1l4.58,12.25v.27L256,74.92,252.08,64Zm-4-5.3,4.67.61a6.15,6.15,0,0,0,2,0,3.89,3.89,0,0,0,1.54-.66,3.57,3.57,0,0,0,1-1.19,4.8,4.8,0,0,0,.51-1.67,4.31,4.31,0,0,0-.72-3.27,4.74,4.74,0,0,0-3.32-1.61l-4.65-.61-1.1,8.39Z"/>
    </clipPath>
    <clipPath id="clip-path-68" transform="translate(15 14)">
      <path class="cls-2" d="M282.8,76l-9.74-3.15-3.65,4.95-5.91-1.91,18.77-23.66,5.15,1.66L288.79,84l-6-1.87V76ZM276,68.82,282.76,71l-.12-11.16-6.62,9Z"/>
    </clipPath>
    <clipPath id="clip-path-69" transform="translate(15 14)">
      <polygon class="cls-2" points="319.07 73.37 311.36 69.4 300.52 90.33 295.32 87.66 306.21 66.76 298.6 62.84 300.76 58.65 321.28 69.21 319.07 73.37 319.07 73.37"/>
    </clipPath>
    <clipPath id="clip-path-70" transform="translate(15 14)">
      <polygon class="cls-2" points="339.74 104.35 331.2 97.1 323.69 105.91 319.21 102.13 337.58 80.59 351.64 92.52 348.57 96.12 338.96 87.97 334.21 93.53 342.75 100.77 339.74 104.35 339.74 104.35"/>
    </clipPath>
    <clipPath id="clip-path-71" transform="translate(15 14)">
      <path class="cls-2" d="M361.29,125.82a18.06,18.06,0,0,1-5,3.05,12.66,12.66,0,0,1-4.93.86,10.74,10.74,0,0,1-4.55-1.16,12.84,12.84,0,0,1-6.26-7.49,10.86,10.86,0,0,1-.33-4.69,12.63,12.63,0,0,1,1.73-4.71,17.65,17.65,0,0,1,3.91-4.41l1-.8a17.93,17.93,0,0,1,5-3,12.88,12.88,0,0,1,5-.86,10.74,10.74,0,0,1,4.58,1.15,12.85,12.85,0,0,1,6.26,7.49,10.66,10.66,0,0,1,.31,4.69,12.79,12.79,0,0,1-1.79,4.71,17.89,17.89,0,0,1-3.9,4.39l-.94.8Zm-2.8-5.36q3.47-2.84,4.19-5.55a5.62,5.62,0,0,0-5.84-7q-2.8.26-6.22,3.1l-1,.82a16.56,16.56,0,0,0-2.75,2.83,8.7,8.7,0,0,0-1.43,2.75,5.17,5.17,0,0,0-.1,2.59,5.61,5.61,0,0,0,1.22,2.39,5.15,5.15,0,0,0,4.72,1.94q2.81-.29,6.23-3.13l1-.8Zm5-21.79a2.4,2.4,0,0,1,.87-.47,2.37,2.37,0,0,1,1-.08,2.52,2.52,0,0,1,1,.32,3.24,3.24,0,0,1,1.39,1.66,2.4,2.4,0,0,1,.14,1,2.59,2.59,0,0,1-.25.93,2.42,2.42,0,0,1-1.5,1.24,2.44,2.44,0,0,1-1.89-.25,3.24,3.24,0,0,1-1.39-1.66,2.59,2.59,0,0,1-.16-1,2.26,2.26,0,0,1,.24-.93,2.39,2.39,0,0,1,.61-.77Zm6.07,7.26a2.33,2.33,0,0,1,.87-.47,2.49,2.49,0,0,1,1-.07,2.61,2.61,0,0,1,.94.31,3.09,3.09,0,0,1,1.39,1.66,2.72,2.72,0,0,1,.15,1,2.39,2.39,0,0,1-.23.93,2.33,2.33,0,0,1-.62.78,2.3,2.3,0,0,1-.87.47,2.48,2.48,0,0,1-1.92-.25,3.24,3.24,0,0,1-1.39-1.66,2.38,2.38,0,0,1-.14-1,2.59,2.59,0,0,1,.25-.93,2.31,2.31,0,0,1,.58-.78Z"/>
    </clipPath>
    <clipPath id="clip-path-72" transform="translate(15 14)">
      <path class="cls-2" d="M367.47,142.32l-2.27-4-9.06,5.06-2.85-5.12L378,124.38l5.15,9.16a16,16,0,0,1,1.66,4.1,9.15,9.15,0,0,1,.18,3.66,7.12,7.12,0,0,1-1.33,3.1,8.88,8.88,0,0,1-2.88,2.43,10.23,10.23,0,0,1-2.6,1.05,7.3,7.3,0,0,1-4.66-.38,10.41,10.41,0,0,1-2.12-1.23l-7.15,11-.23.13L361,152l6.48-9.67Zm1.85-6.35,2.31,4.1a6.05,6.05,0,0,0,1.25,1.61,3.88,3.88,0,0,0,1.45.86,3.61,3.61,0,0,0,1.58.11,4.78,4.78,0,0,0,1.65-.59,4.33,4.33,0,0,0,2.19-2.52,4.71,4.71,0,0,0-.7-3.61l-2.3-4.08L369.33,136Z"/>
    </clipPath>
    <clipPath id="clip-path-73" transform="translate(15 14)">
      <polygon class="cls-2" points="382.67 172.85 378.91 162.32 371.76 164.86 376.18 177.22 371.76 178.79 365.38 160.94 392.08 151.43 398.45 169.25 393.99 170.83 389.59 158.5 383.23 160.77 386.99 171.31 382.67 172.85 382.67 172.85"/>
    </clipPath>
    <clipPath id="clip-path-74" transform="translate(15 14)">
      <polygon class="cls-2" points="399.75 199.66 398.24 191.13 374.98 195.27 373.96 189.54 397.22 185.4 395.72 176.99 400.38 176.12 404.41 198.8 399.75 199.66 399.75 199.66"/>
    </clipPath>
    <clipPath id="clip-path-75" transform="translate(15 14)">
      <path class="cls-2" d="M382.65,221l-.16-10.2L376.62,209l-.09-6.19L405,212.89l.08,5.39-28.2,11-.09-6.19,5.83-2Zm4.61-8.71.1,7.06,10.56-3.7-10.66-3.36Z"/>
    </clipPath>
    <clipPath id="clip-path-76" transform="translate(15 14)">
      <path class="cls-2" d="M376.25,254.36a9.35,9.35,0,0,1-1-1.58,10.36,10.36,0,0,1-.87-2.38,16.15,16.15,0,0,1-.45-3.24,19.13,19.13,0,0,1,.31-4.13,13.34,13.34,0,0,1,1.73-4.77,10.48,10.48,0,0,1,3.28-3.36,12.15,12.15,0,0,1,4.66-1.73,17.8,17.8,0,0,1,5.9.12l1.65.29a18.68,18.68,0,0,1,5.63,1.82,12.22,12.22,0,0,1,3.84,3.09,10.05,10.05,0,0,1,2,4.13,12.53,12.53,0,0,1,.07,5,14.67,14.67,0,0,1-1.49,4.58,9.39,9.39,0,0,1-2.48,3,8.83,8.83,0,0,1-3.29,1.57,13.09,13.09,0,0,1-3.91.33l1-5.58a8.4,8.4,0,0,0,2-.21,4.43,4.43,0,0,0,1.63-.74,4.33,4.33,0,0,0,1.2-1.4,6.78,6.78,0,0,0,.71-2.15,5.18,5.18,0,0,0-1.46-4.86q-2-1.92-6.36-2.67l-1.69-.29q-4.39-.75-6.93.52a5.78,5.78,0,0,0-3.09,4.5,10.66,10.66,0,0,0-.17,1.82,7.67,7.67,0,0,0,.11,1.37,4.54,4.54,0,0,0,.29,1,3.86,3.86,0,0,0,.36.67l4.82.86.87-5.19,4.24.73-1.9,11-11.13-2Z"/>
    </clipPath>
    <clipPath id="clip-path-77" transform="translate(15 14)">
      <polygon class="cls-3" points="402.37 269.48 332.63 269.48 332.63 324.58 403.13 324.58 378.72 296.59 402.37 269.48 402.37 269.48"/>
    </clipPath>
    <clipPath id="clip-path-78" transform="translate(15 14)">
      <polygon class="cls-3" points="332.63 269.48 354.93 283.53 332.63 283.53 332.63 269.48 332.63 269.48"/>
    </clipPath>
    <clipPath id="clip-path-79" transform="translate(15 14)">
      <polygon class="cls-3" points="57.13 269.48 126.86 269.48 126.86 324.58 56.36 324.58 80.77 296.59 57.13 269.48 57.13 269.48"/>
    </clipPath>
    <clipPath id="clip-path-80" transform="translate(15 14)">
      <polygon class="cls-3" points="126.86 269.48 104.56 283.53 126.86 283.53 126.86 269.48 126.86 269.48"/>
    </clipPath>
    <clipPath id="clip-path-81" transform="translate(15 14)">
      <rect class="cls-1" x="104.54" y="283.47" width="250.42" height="64.72"/>
    </clipPath>
    <clipPath id="clip-path-82" transform="translate(15 14)">
      <path class="cls-3" d="M151.61,142.07a4.85,4.85,0,1,0-4.83-4.85,4.84,4.84,0,0,0,4.83,4.85Z"/>
    </clipPath>
    <clipPath id="clip-path-83" transform="translate(15 14)">
      <path class="cls-3" d="M141.14,154.18a4.85,4.85,0,1,0-4.83-4.85,4.84,4.84,0,0,0,4.83,4.85Z"/>
    </clipPath>
    <clipPath id="clip-path-84" transform="translate(15 14)">
      <path class="cls-3" d="M132.27,167.91a4.85,4.85,0,1,0-4.83-4.85,4.84,4.84,0,0,0,4.83,4.85Z"/>
    </clipPath>
    <clipPath id="clip-path-85" transform="translate(15 14)">
      <path class="cls-3" d="M124.22,182.45a4.85,4.85,0,1,0-4.83-4.85,4.84,4.84,0,0,0,4.83,4.85Z"/>
    </clipPath>
    <clipPath id="clip-path-86" transform="translate(15 14)">
      <path class="cls-3" d="M119.39,199.41a4.85,4.85,0,1,0-4.83-4.85,4.84,4.84,0,0,0,4.83,4.85Z"/>
    </clipPath>
    <clipPath id="clip-path-87" transform="translate(15 14)">
      <path class="cls-3" d="M116.16,215.56a4.85,4.85,0,1,0-4.83-4.85,4.84,4.84,0,0,0,4.83,4.85Z"/>
    </clipPath>
    <clipPath id="clip-path-88" transform="translate(15 14)">
      <path class="cls-3" d="M116.16,231.72a4.85,4.85,0,1,0-4.83-4.85,4.84,4.84,0,0,0,4.83,4.85Z"/>
    </clipPath>
    <clipPath id="clip-path-89" transform="translate(15 14)">
      <path class="cls-3" d="M307.89,142.07a4.85,4.85,0,1,1,4.83-4.85,4.84,4.84,0,0,1-4.83,4.85Z"/>
    </clipPath>
    <clipPath id="clip-path-90" transform="translate(15 14)">
      <path class="cls-3" d="M318.36,154.18a4.85,4.85,0,1,1,4.83-4.85,4.84,4.84,0,0,1-4.83,4.85Z"/>
    </clipPath>
    <clipPath id="clip-path-91" transform="translate(15 14)">
      <path class="cls-3" d="M327.22,167.91a4.85,4.85,0,1,1,4.83-4.85,4.84,4.84,0,0,1-4.83,4.85Z"/>
    </clipPath>
    <clipPath id="clip-path-92" transform="translate(15 14)">
      <path class="cls-3" d="M335.28,182.45a4.85,4.85,0,1,1,4.83-4.85,4.84,4.84,0,0,1-4.83,4.85Z"/>
    </clipPath>
    <clipPath id="clip-path-93" transform="translate(15 14)">
      <path class="cls-3" d="M340.11,199.41a4.85,4.85,0,1,1,4.83-4.85,4.84,4.84,0,0,1-4.83,4.85Z"/>
    </clipPath>
    <clipPath id="clip-path-94" transform="translate(15 14)">
      <path class="cls-3" d="M343.33,215.56a4.85,4.85,0,1,1,4.83-4.85,4.84,4.84,0,0,1-4.83,4.85Z"/>
    </clipPath>
    <clipPath id="clip-path-95" transform="translate(15 14)">
      <path class="cls-3" d="M343.33,231.72a4.85,4.85,0,1,1,4.83-4.85,4.84,4.84,0,0,1-4.83,4.85Z"/>
    </clipPath>
  </defs>
  <title>5year</title>
  <g>
    <g class="cls-4">
      <rect class="cls-5" width="490.46" height="490.47"/>
    </g>
    <g class="cls-6">
      <rect class="cls-7" x="14.91" y="14.99" width="460.65" height="460.61"/>
    </g>
    <g class="cls-8">
      <rect x="323.72" y="356.88" width="36.17" height="33.79" transform="translate(-126.41 539.59) rotate(-65)"/>
    </g>
    <g class="cls-9">
      <rect x="127.53" y="357.32" width="48.07" height="50.38" transform="translate(-244.16 372.22) rotate(-65)"/>
    </g>
    <g class="cls-10">
      <rect x="170.95" y="366.21" width="50.21" height="61.9" transform="translate(-231.75 421) rotate(-65)"/>
    </g>
    <g class="cls-11">
      <rect x="214.61" y="372.59" width="51.72" height="58.14" transform="translate(-210.18 463.86) rotate(-65)"/>
    </g>
    <g class="cls-12">
      <rect x="253.48" y="369.01" width="53.04" height="48.64" transform="translate(-179.81 494.87) rotate(-65)"/>
    </g>
    <g class="cls-13">
      <rect x="297.53" y="391.82" width="18.07" height="18.52" transform="translate(-171.5 523.41) rotate(-65)"/>
    </g>
    <g class="cls-14">
      <rect x="303.61" y="369.29" width="35.65" height="32.73" transform="translate(-148.93 527.99) rotate(-65)"/>
    </g>
    <path d="M202.62,209.93q2-2,4.31-3.91a25.9,25.9,0,0,1,5.37-3.38,34.77,34.77,0,0,1,7-2.39,40.37,40.37,0,0,1,9.22-.93,35.46,35.46,0,0,1,13.8,2.45,25.85,25.85,0,0,1,9.68,6.9,28.51,28.51,0,0,1,5.7,10.75,48.93,48.93,0,0,1,1.86,13.86A62.42,62.42,0,0,1,258,247.41a33.41,33.41,0,0,1-4.78,11.34,23.7,23.7,0,0,1-8.36,7.56,25.59,25.59,0,0,1-12.4,2.79q-11.67,0-18.9-6.7t-8.42-18.77H167.2a53.54,53.54,0,0,0,6,23.88,56.23,56.23,0,0,0,14.59,17.71,64.51,64.51,0,0,0,20.69,11A77.86,77.86,0,0,0,232.6,300q16.58,0,28.85-5.31a56.88,56.88,0,0,0,32.43-34.76,75.52,75.52,0,0,0,4-24.54,87.09,87.09,0,0,0-4-27.33,56.24,56.24,0,0,0-11.54-20.43,49.88,49.88,0,0,0-18.51-12.8A65.66,65.66,0,0,0,239,170.4a57,57,0,0,0-9.22.73,66.85,66.85,0,0,0-8.22,1.86,61.07,61.07,0,0,0-6.7,2.39q-2.92,1.26-4.91,2.32l4.78-41.52H291.5v-32H183.25L172.1,202.37l30.51,7.56Z" transform="translate(15 14)"/>
    <g class="cls-15">
      <rect x="69.8" y="238.46" width="39.9" height="36.21"/>
    </g>
    <g class="cls-16">
      <rect x="67.8" y="215.61" width="38.45" height="29.03"/>
    </g>
    <g class="cls-17">
      <rect x="68.65" y="184.78" width="41.88" height="37.23"/>
    </g>
    <g class="cls-18">
      <rect x="77.25" y="159.44" width="38.99" height="35.37"/>
    </g>
    <g class="cls-19">
      <rect x="86.94" y="121.43" width="49.95" height="50.28"/>
    </g>
    <g class="cls-20">
      <rect x="110.44" y="91.72" width="51.08" height="50.99"/>
    </g>
    <g class="cls-21">
      <rect x="140.81" y="75.32" width="41.26" height="44.01"/>
    </g>
    <g class="cls-22">
      <rect x="164.52" y="62.4" width="42.14" height="44.9"/>
    </g>
    <g class="cls-23">
      <rect x="196.07" y="57.39" width="34.59" height="39.71"/>
    </g>
    <g class="cls-24">
      <rect x="226.54" y="53.42" width="30.06" height="38.95"/>
    </g>
    <g class="cls-25">
      <rect x="250.33" y="53.84" width="33.54" height="40.89"/>
    </g>
    <g class="cls-26">
      <rect x="273.5" y="61.19" width="35.28" height="41.81"/>
    </g>
    <g class="cls-27">
      <rect x="305.32" y="67.65" width="35.96" height="41.68"/>
    </g>
    <g class="cls-28">
      <rect x="329.21" y="89.59" width="42.43" height="35.31"/>
    </g>
    <g class="cls-29">
      <rect x="350.06" y="107.11" width="43.75" height="41.63"/>
    </g>
    <g class="cls-30">
      <rect x="363.29" y="133.38" width="41.83" height="43.07"/>
    </g>
    <g class="cls-31">
      <rect x="375.38" y="160.43" width="43.07" height="37.36"/>
    </g>
    <g class="cls-32">
      <rect x="383.96" y="185.12" width="40.45" height="33.53"/>
    </g>
    <g class="cls-33">
      <rect x="386.53" y="211.78" width="38.57" height="36.48"/>
    </g>
    <g class="cls-34">
      <rect x="383.88" y="241.98" width="39.29" height="34.09"/>
    </g>
    <g class="cls-35">
      <rect class="cls-36" x="342.63" y="278.48" width="80.5" height="65.1"/>
    </g>
    <g class="cls-37">
      <rect class="cls-38" x="342.63" y="278.47" width="32.3" height="24.06"/>
    </g>
    <g class="cls-39">
      <rect class="cls-36" x="66.36" y="278.48" width="80.5" height="65.1"/>
    </g>
    <g class="cls-40">
      <rect class="cls-38" x="114.56" y="278.47" width="32.3" height="24.06"/>
    </g>
    <g class="cls-41">
      <rect class="cls-5" x="114.54" y="292.47" width="260.42" height="74.72"/>
    </g>
    <path class="cls-7" d="M162.51,333h7.25l-12.39-33.11H151L138.72,333H146l2.27-6.82h12l2.3,6.82Zm-8.3-24.74,4.16,12.39h-8.28l4.12-12.39Zm-4.57-12.81a4.66,4.66,0,0,0,1.06,1.46,4.81,4.81,0,0,0,1.6,1,6,6,0,0,0,4,0,5,5,0,0,0,1.61-1A4.43,4.43,0,0,0,159,295.4a4.28,4.28,0,0,0,.38-1.79,4.44,4.44,0,0,0-.38-1.81,4.37,4.37,0,0,0-1.06-1.48,5.28,5.28,0,0,0-1.61-1,5.65,5.65,0,0,0-4,0,5.13,5.13,0,0,0-1.6,1,4.59,4.59,0,0,0-1.06,1.48,4.32,4.32,0,0,0-.39,1.81,4.17,4.17,0,0,0,.39,1.79Zm2.4-2.74a2.37,2.37,0,0,1,.49-.8,2.24,2.24,0,0,1,.77-.53,2.81,2.81,0,0,1,2,0,2.25,2.25,0,0,1,.77.53,2.38,2.38,0,0,1,.49.8,2.7,2.7,0,0,1,.17,1,2.45,2.45,0,0,1-.66,1.72,2.61,2.61,0,0,1-3.59,0,2.45,2.45,0,0,1-.66-1.72,2.7,2.7,0,0,1,.17-1ZM191.32,333h7.32v-.32l-7.16-13.53a12.2,12.2,0,0,0,2.46-1.46,8.5,8.5,0,0,0,3-4.54,12,12,0,0,0,.41-3.26,10.42,10.42,0,0,0-.84-4.32,8.38,8.38,0,0,0-2.41-3.13,10.76,10.76,0,0,0-3.84-1.91,18.76,18.76,0,0,0-5.14-.65h-12.3V333h6.82V320.83h5.44L191.32,333Zm-11.64-27.59h5.48a5.53,5.53,0,0,1,4.08,1.34,5,5,0,0,1,1.33,3.68,5.63,5.63,0,0,1-.34,2,4.19,4.19,0,0,1-1,1.55,4.52,4.52,0,0,1-1.68,1,7.15,7.15,0,0,1-2.35.35h-5.5v-9.94Zm41.75-5.53h-6.82V333h6.82V299.84ZM257.82,333h7.32v-.32L258,319.11a12.2,12.2,0,0,0,2.46-1.46,8.5,8.5,0,0,0,3-4.54,12,12,0,0,0,.41-3.26,10.42,10.42,0,0,0-.84-4.32,8.38,8.38,0,0,0-2.41-3.13,10.76,10.76,0,0,0-3.84-1.91,18.76,18.76,0,0,0-5.14-.65h-12.3V333h6.82V320.83h5.44L257.82,333Zm-11.64-27.59h5.48a5.53,5.53,0,0,1,4.08,1.34,5,5,0,0,1,1.33,3.68,5.63,5.63,0,0,1-.34,2,4.19,4.19,0,0,1-1,1.55,4.52,4.52,0,0,1-1.68,1,7.15,7.15,0,0,1-2.35.35h-5.5v-9.94ZM290.07,333h7.25l-12.39-33.11H278.6L266.28,333h7.25l2.27-6.82h12l2.3,6.82Zm-8.3-24.74,4.16,12.39h-8.28l4.12-12.39ZM310.53,333a16.21,16.21,0,0,0,6.16-1.14,13.87,13.87,0,0,0,4.81-3.22,14.46,14.46,0,0,0,3.12-5,18,18,0,0,0,1.1-6.45v-1.5a17.94,17.94,0,0,0-1.11-6.46,14.77,14.77,0,0,0-3.1-5,13.8,13.8,0,0,0-4.78-3.23,15.93,15.93,0,0,0-6.13-1.15H300.41V333Zm.07-27.59a7.38,7.38,0,0,1,6.12,2.6q2.09,2.6,2.09,7.65v1.55q0,5-2.11,7.63a7.39,7.39,0,0,1-6.16,2.67h-3.3v-22.1Z" transform="translate(15 14)"/>
    <g class="cls-42">
      <rect class="cls-36" x="156.77" y="141.37" width="19.67" height="19.69"/>
    </g>
    <g class="cls-43">
      <rect class="cls-36" x="146.3" y="153.49" width="19.67" height="19.69"/>
    </g>
    <g class="cls-44">
      <rect class="cls-36" x="137.44" y="167.22" width="19.67" height="19.69"/>
    </g>
    <g class="cls-45">
      <rect class="cls-36" x="129.39" y="181.76" width="19.67" height="19.69"/>
    </g>
    <g class="cls-46">
      <rect class="cls-36" x="124.55" y="198.72" width="19.67" height="19.69"/>
    </g>
    <g class="cls-47">
      <rect class="cls-36" x="121.33" y="214.87" width="19.67" height="19.69"/>
    </g>
    <g class="cls-48">
      <rect class="cls-36" x="121.33" y="231.03" width="19.67" height="19.69"/>
    </g>
    <g class="cls-49">
      <rect class="cls-36" x="313.05" y="141.37" width="19.67" height="19.69"/>
    </g>
    <g class="cls-50">
      <rect class="cls-36" x="323.53" y="153.49" width="19.67" height="19.69"/>
    </g>
    <g class="cls-51">
      <rect class="cls-36" x="332.39" y="167.22" width="19.67" height="19.69"/>
    </g>
    <g class="cls-52">
      <rect class="cls-36" x="340.44" y="181.76" width="19.67" height="19.69"/>
    </g>
    <g class="cls-53">
      <rect class="cls-36" x="345.28" y="198.72" width="19.67" height="19.69"/>
    </g>
    <g class="cls-54">
      <rect class="cls-36" x="348.5" y="214.87" width="19.67" height="19.69"/>
    </g>
    <g class="cls-55">
      <rect class="cls-36" x="348.5" y="231.03" width="19.67" height="19.69"/>
    </g>
  </g>
</svg>