<?xml version="1.0" encoding="UTF-8" standalone="no"?>
<svg xmlns:dc="http://purl.org/dc/elements/1.1/" xmlns:cc="http://creativecommons.org/ns#" xmlns:rdf="http://www.w3.org/1999/02/22-rdf-syntax-ns#" xmlns:svg="http://www.w3.org/2000/svg" xmlns="http://www.w3.org/2000/svg" width="104" height="38" viewBox="76.5 72.205 104 38.000002" version="1.1" id="svg993" style="fill:#231f20">
  <metadata id="metadata999">
    <rdf:RDF>
      <cc:Work rdf:about="">
        <dc:format>image/svg+xml</dc:format>
        <dc:type rdf:resource="http://purl.org/dc/dcmitype/StillImage"/>
        <dc:title/>
      </cc:Work>
    </rdf:RDF>
  </metadata>
  <defs id="defs997">
    <clipPath clipPathUnits="userSpaceOnUse" id="clipPath1062">
      <path d="M 0,242.989 H 530.561 V 0 H 0 Z" id="path1060"/>
    </clipPath>
  </defs>
  <g id="g1845" transform="matrix(0.92144808,0,0,0.92144808,232.65664,82.497922)">
    <g transform="matrix(0.25677373,0,0,-0.25677373,-125.21757,2.7349668)" id="g1052">
      <path id="path1054" style="fill:#94ce3c;fill-opacity:1;fill-rule:nonzero;stroke:none" d="M 0,0 V 47.89 H 30.752 V 40.494 H 8.709 V 28.678 H 28.333 V 21.421 H 8.709 V 7.395 H 32.411 V 0 Z"/>
    </g>
    <g id="g1056" transform="matrix(0.25677373,0,0,-0.25677373,-181.47685,40.51632)">
      <g clip-path="url(#clipPath1062)" id="g1058">
        <g transform="translate(254,182.1064)" id="g1064">
          <path id="path1066" style="fill:#94ce13;fill-opacity:1;fill-rule:nonzero;stroke:none" d="m 0,0 c 1.611,0.458 3.706,0.898 6.287,1.312 2.579,0.416 5.436,0.621 8.568,0.621 2.95,0 5.415,-0.403 7.395,-1.209 1.979,-0.806 3.558,-1.934 4.733,-3.386 1.175,-1.451 2.005,-3.201 2.488,-5.252 0.486,-2.051 0.726,-4.295 0.726,-6.737 v -20.317 h -8.362 v 19.003 c 0,1.937 -0.127,3.581 -0.381,4.942 -0.252,1.358 -0.667,2.464 -1.242,3.317 -0.576,0.852 -1.36,1.474 -2.352,1.866 -0.989,0.389 -2.199,0.586 -3.626,0.586 -1.059,0 -2.166,-0.068 -3.317,-0.207 C 9.767,-5.599 8.913,-5.714 8.361,-5.807 V -34.968 H 0 Z"/>
        </g>
        <g transform="translate(304.7949,187.9775)" id="g1068">
          <path id="path1070" style="fill:#94ce3c;fill-opacity:1;fill-rule:nonzero;stroke:none" d="m 0,0 c -1.842,0 -3.546,-0.067 -5.112,-0.206 v -15.48 h 3.801 c 2.119,0 3.985,0.115 5.597,0.346 1.612,0.23 2.96,0.646 4.041,1.243 1.084,0.6 1.902,1.406 2.452,2.418 0.556,1.015 0.83,2.306 0.83,3.872 0,1.473 -0.274,2.718 -0.83,3.732 -0.55,1.012 -1.344,1.817 -2.382,2.418 C 7.36,-1.058 6.13,-0.63 4.7,-0.377 3.273,-0.126 1.708,0 0,0 m -0.619,7.533 c 6.908,0 12.195,-1.265 15.857,-3.799 3.661,-2.536 5.494,-6.406 5.494,-11.61 0,-6.497 -3.204,-10.895 -9.605,-13.198 0.875,-1.062 1.865,-2.351 2.971,-3.872 1.106,-1.519 2.234,-3.168 3.387,-4.942 1.152,-1.773 2.255,-3.592 3.318,-5.458 1.059,-1.865 2.004,-3.698 2.833,-5.493 h -9.744 c -0.875,1.659 -1.821,3.328 -2.833,5.01 -1.015,1.68 -2.04,3.316 -3.075,4.907 -1.037,1.59 -2.063,3.086 -3.078,4.491 -1.01,1.405 -1.959,2.66 -2.832,3.767 -0.645,-0.048 -1.197,-0.069 -1.659,-0.069 H -0.896 -5.112 V -40.839 H -13.82 V 6.359 c 2.119,0.461 4.377,0.772 6.774,0.933 2.394,0.162 4.537,0.241 6.427,0.241"/>
        </g>
        <g transform="translate(351.8564,168.7676)" id="g1072">
          <path id="path1074" style="fill:#94ce3c;fill-opacity:1;fill-rule:nonzero;stroke:none" d="m 0,0 c 0,1.149 -0.162,2.247 -0.484,3.282 -0.322,1.037 -0.794,1.937 -1.417,2.696 -0.62,0.76 -1.382,1.358 -2.281,1.796 -0.897,0.438 -1.967,0.657 -3.214,0.657 -1.289,0 -2.417,-0.243 -3.384,-0.725 C -11.749,7.223 -12.567,6.587 -13.233,5.805 -13.901,5.022 -14.42,4.123 -14.787,3.109 -15.158,2.096 -15.411,1.061 -15.549,0 Z m -24.255,-3.732 c 0,3.178 0.47,5.965 1.415,8.362 0.944,2.395 2.201,4.387 3.767,5.977 1.566,1.59 3.362,2.788 5.391,3.594 2.028,0.806 4.1,1.21 6.217,1.21 4.977,0 8.858,-1.544 11.645,-4.63 C 6.97,7.693 8.361,3.088 8.361,-3.04 8.361,-3.502 8.352,-4.02 8.327,-4.594 8.305,-5.172 8.269,-5.689 8.224,-6.15 h -23.841 c 0.229,-2.902 1.254,-5.148 3.074,-6.737 1.82,-1.589 4.457,-2.386 7.913,-2.386 2.026,0 3.882,0.184 5.562,0.555 1.682,0.368 3.007,0.761 3.974,1.173 l 1.106,-6.84 c -0.463,-0.23 -1.096,-0.472 -1.901,-0.727 -0.806,-0.252 -1.727,-0.482 -2.763,-0.689 -1.037,-0.21 -2.154,-0.383 -3.352,-0.518 -1.199,-0.14 -2.419,-0.208 -3.662,-0.208 -3.18,0 -5.944,0.472 -8.293,1.415 -2.35,0.943 -4.284,2.258 -5.806,3.94 -1.52,1.681 -2.648,3.662 -3.386,5.944 -0.738,2.279 -1.104,4.778 -1.104,7.496"/>
        </g>
        <g transform="translate(363.8809,182.1064)" id="g1076">
          <path id="path1078" style="fill:#94ce3c;fill-opacity:1;fill-rule:nonzero;stroke:none" d="m 0,0 c 1.612,0.458 3.707,0.898 6.286,1.312 2.582,0.416 5.438,0.621 8.571,0.621 2.95,0 5.414,-0.403 7.394,-1.209 1.98,-0.806 3.56,-1.934 4.734,-3.386 1.175,-1.451 2.004,-3.201 2.487,-5.252 0.485,-2.051 0.726,-4.295 0.726,-6.737 v -20.317 h -8.363 v 19.003 c 0,1.937 -0.124,3.581 -0.379,4.942 -0.253,1.358 -0.666,2.464 -1.245,3.317 -0.575,0.852 -1.357,1.474 -2.349,1.866 -0.988,0.389 -2.2,0.586 -3.628,0.586 -1.058,0 -2.166,-0.068 -3.314,-0.207 C 9.767,-5.599 8.913,-5.714 8.363,-5.807 V -34.968 H 0 Z"/>
        </g>
        <g transform="translate(411.8369,153.0107)" id="g1080">
          <path id="path1082" style="fill:#94ce3c;fill-opacity:1;fill-rule:nonzero;stroke:none" d="M 0,0 C 2.582,0 4.539,0.142 5.874,0.415 V 9.678 C 5.413,9.814 4.746,9.952 3.872,10.09 2.997,10.229 2.028,10.299 0.968,10.299 0.047,10.299 -0.886,10.229 -1.829,10.09 -2.775,9.952 -3.627,9.7 -4.386,9.332 -5.146,8.962 -5.758,8.442 -6.218,7.775 -6.68,7.107 -6.908,6.267 -6.908,5.254 -6.908,3.271 -6.285,1.902 -5.043,1.141 -3.799,0.382 -2.117,0 0,0 m -0.689,31.167 c 2.764,0 5.09,-0.344 6.978,-1.036 1.889,-0.692 3.399,-1.658 4.526,-2.901 1.13,-1.247 1.937,-2.755 2.42,-4.528 0.484,-1.775 0.727,-3.721 0.727,-5.838 V -5.044 c -1.289,-0.274 -3.239,-0.61 -5.841,-1 -2.603,-0.392 -5.539,-0.589 -8.81,-0.589 -2.164,0 -4.148,0.207 -5.944,0.621 -1.796,0.418 -3.328,1.082 -4.596,2.006 -1.265,0.921 -2.257,2.116 -2.97,3.592 -0.715,1.476 -1.072,3.296 -1.072,5.459 0,2.073 0.406,3.823 1.209,5.254 0.805,1.425 1.901,2.591 3.283,3.488 1.383,0.899 2.982,1.544 4.804,1.936 1.819,0.391 3.719,0.587 5.703,0.587 0.919,0 1.886,-0.058 2.9,-0.172 1.013,-0.117 2.094,-0.312 3.246,-0.588 v 1.383 c 0,0.966 -0.112,1.887 -0.344,2.764 -0.231,0.872 -0.633,1.647 -1.209,2.315 -0.577,0.666 -1.339,1.185 -2.282,1.554 -0.942,0.37 -2.128,0.553 -3.559,0.553 -1.934,0 -3.709,-0.138 -5.32,-0.413 -1.614,-0.278 -2.927,-0.601 -3.939,-0.969 l -1.035,6.772 c 1.059,0.369 2.6,0.736 4.627,1.105 2.028,0.368 4.194,0.553 6.498,0.553"/>
        </g>
        <g transform="translate(451.4346,175.748)" id="g1084">
          <path id="path1086" style="fill:#94ce3c;fill-opacity:1;fill-rule:nonzero;stroke:none" d="m 0,0 c -0.688,0.23 -1.647,0.471 -2.868,0.725 -1.221,0.253 -2.635,0.379 -4.25,0.379 -0.921,0 -1.901,-0.091 -2.935,-0.275 -1.037,-0.184 -1.761,-0.347 -2.179,-0.484 v -28.954 h -8.36 V 5.804 c 1.612,0.598 3.626,1.163 6.046,1.694 2.419,0.528 5.102,0.793 8.053,0.793 0.553,0 1.196,-0.035 1.931,-0.103 0.738,-0.069 1.475,-0.162 2.214,-0.277 0.737,-0.115 1.451,-0.253 2.142,-0.413 0.691,-0.161 1.242,-0.31 1.658,-0.45 z"/>
        </g>
        <g transform="translate(475.7598,168.7676)" id="g1088">
          <path id="path1090" style="fill:#94ce3c;fill-opacity:1;fill-rule:nonzero;stroke:none" d="M 0,0 C 0,1.149 -0.161,2.247 -0.482,3.282 -0.805,4.319 -1.276,5.219 -1.9,5.978 -2.521,6.738 -3.282,7.336 -4.182,7.774 -5.08,8.212 -6.15,8.431 -7.395,8.431 -8.684,8.431 -9.812,8.188 -10.781,7.706 -11.747,7.223 -12.566,6.587 -13.233,5.805 -13.902,5.022 -14.42,4.123 -14.788,3.109 -15.159,2.096 -15.41,1.061 -15.55,0 Z m -24.256,-3.732 c 0,3.178 0.472,5.965 1.417,8.362 0.943,2.395 2.2,4.387 3.765,5.977 1.567,1.59 3.364,2.788 5.39,3.594 2.028,0.806 4.101,1.21 6.221,1.21 4.975,0 8.857,-1.544 11.645,-4.63 C 6.967,7.693 8.362,3.088 8.362,-3.04 8.362,-3.502 8.353,-4.02 8.328,-4.594 8.303,-5.172 8.27,-5.689 8.225,-6.15 h -23.843 c 0.231,-2.902 1.256,-5.148 3.075,-6.737 1.82,-1.589 4.46,-2.386 7.913,-2.386 2.026,0 3.882,0.184 5.564,0.555 1.681,0.368 3.005,0.761 3.972,1.173 l 1.108,-6.84 c -0.462,-0.23 -1.094,-0.472 -1.9,-0.727 -0.809,-0.252 -1.728,-0.482 -2.766,-0.689 -1.036,-0.21 -2.153,-0.383 -3.352,-0.518 -1.198,-0.14 -2.417,-0.208 -3.662,-0.208 -3.178,0 -5.94,0.472 -8.294,1.415 -2.349,0.943 -4.284,2.258 -5.804,3.94 -1.52,1.681 -2.649,3.662 -3.384,5.944 -0.74,2.279 -1.108,4.778 -1.108,7.496"/>
        </g>
        <g transform="translate(226.5771,134.9287)" id="g1092">
          <path id="path1094" style="fill:#346816;fill-opacity:1;fill-rule:nonzero;stroke:none" d="m 0,0 c 1.965,-5.839 3.87,-11.363 5.713,-16.574 1.845,-5.211 3.655,-10.261 5.435,-15.143 1.777,-4.885 3.576,-9.673 5.397,-14.368 1.82,-4.692 3.797,-9.435 5.933,-14.219 2.036,4.704 3.98,9.408 5.834,14.103 1.858,4.693 3.693,9.483 5.509,14.363 1.815,4.883 3.632,9.945 5.45,15.187 1.814,5.244 3.708,10.79 5.681,16.651 h 7.09 c -3.007,-8.623 -5.723,-16.176 -8.144,-22.658 -2.421,-6.483 -4.653,-12.348 -6.699,-17.605 -2.049,-5.253 -4.004,-10.093 -5.87,-14.521 -1.867,-4.43 -3.816,-8.892 -5.854,-13.391 h -6.282 c -1.986,4.544 -3.934,9.03 -5.841,13.455 -1.906,4.425 -3.904,9.258 -5.991,14.495 -2.083,5.24 -4.327,11.104 -6.726,17.596 -2.4,6.488 -5.102,14.032 -8.111,22.629 z"/>
        </g>
        <g transform="translate(295.2402,71.377)" id="g1096">
          <path id="path1098" style="fill:#346816;fill-opacity:1;fill-rule:nonzero;stroke:none" d="m 0,0 c 2.492,0 4.674,0.082 6.545,0.248 1.869,0.159 3.457,0.377 4.769,0.636 v 17.905 c -0.721,0.327 -1.868,0.673 -3.441,1.033 -1.575,0.36 -3.74,0.541 -6.495,0.541 -1.569,0 -3.215,-0.115 -4.917,-0.344 -1.707,-0.231 -3.28,-0.723 -4.723,-1.476 -1.442,-0.754 -2.625,-1.788 -3.54,-3.098 -0.92,-1.314 -1.376,-3.05 -1.376,-5.215 0,-1.902 0.308,-3.508 0.932,-4.821 0.624,-1.312 1.509,-2.36 2.657,-3.147 C -8.443,1.478 -7.065,0.9 -5.459,0.542 -3.85,0.179 -2.03,0 0,0 m -0.587,47.417 c 3.344,0 6.18,-0.479 8.509,-1.426 2.328,-0.954 4.215,-2.264 5.656,-3.935 1.442,-1.675 2.49,-3.658 3.146,-5.953 0.658,-2.295 0.986,-4.788 0.986,-7.478 V -3.443 c -0.656,-0.198 -1.608,-0.411 -2.851,-0.64 -1.25,-0.23 -2.69,-0.477 -4.33,-0.736 C 8.888,-5.082 7.069,-5.297 5.07,-5.46 3.068,-5.622 1.016,-5.706 -1.079,-5.706 c -2.692,0 -5.166,0.295 -7.428,0.887 -2.263,0.589 -4.23,1.523 -5.902,2.801 -1.673,1.281 -2.987,2.918 -3.935,4.92 -0.952,1.999 -1.428,4.443 -1.428,7.328 0,2.754 0.524,5.118 1.577,7.083 1.045,1.969 2.521,3.592 4.424,4.872 1.901,1.277 4.166,2.211 6.789,2.8 2.623,0.592 5.474,0.887 8.56,0.887 0.914,0 1.881,-0.05 2.901,-0.147 1.015,-0.099 1.999,-0.233 2.951,-0.395 0.949,-0.163 1.77,-0.328 2.459,-0.49 0.687,-0.165 1.164,-0.314 1.425,-0.444 v 3.15 c 0,1.77 -0.129,3.491 -0.392,5.165 -0.264,1.67 -0.836,3.177 -1.722,4.525 -0.886,1.343 -2.131,2.424 -3.738,3.244 -1.608,0.82 -3.724,1.231 -6.344,1.231 -3.738,0 -6.529,-0.263 -8.365,-0.787 -1.835,-0.526 -3.179,-0.951 -4.033,-1.278 l -0.885,5.607 c 1.113,0.525 2.838,1.017 5.166,1.476 2.328,0.456 5.129,0.688 8.412,0.688"/>
        </g>
        <g transform="translate(339.2119,118.5977)" id="g1100">
          <path id="path1102" style="fill:#346816;fill-opacity:1;fill-rule:nonzero;stroke:none" d="M 0,0 C 2.103,0 4.085,-0.165 5.953,-0.492 7.827,-0.821 9.118,-1.147 9.838,-1.478 L 8.563,-6.984 c -0.526,0.26 -1.593,0.54 -3.198,0.835 -1.606,0.295 -3.724,0.442 -6.346,0.442 -2.754,0 -4.967,-0.196 -6.641,-0.59 -1.674,-0.393 -2.773,-0.723 -3.296,-0.983 v -44.564 h -6.393 v 48.499 c 1.635,0.72 3.902,1.458 6.787,2.213 C -7.64,-0.379 -4.131,0 0,0"/>
        </g>
        <g transform="translate(385.3516,108.3662)" id="g1104">
          <path id="path1106" style="fill:#346816;fill-opacity:1;fill-rule:nonzero;stroke:none" d="m 0,0 c -0.592,0.458 -1.329,0.951 -2.211,1.475 -0.89,0.524 -1.916,1.016 -3.1,1.476 -1.182,0.458 -2.46,0.836 -3.837,1.131 -1.375,0.296 -2.82,0.442 -4.329,0.442 -3.148,0 -5.791,-0.557 -7.919,-1.67 -2.132,-1.117 -3.852,-2.607 -5.167,-4.477 -1.311,-1.869 -2.26,-4.067 -2.847,-6.592 -0.594,-2.526 -0.889,-5.2 -0.889,-8.017 0,-6.69 1.671,-11.822 5.02,-15.399 3.342,-3.572 7.768,-5.358 13.277,-5.358 3.149,0 5.689,0.146 7.626,0.441 1.935,0.296 3.396,0.606 4.376,0.935 z m 6.396,-40.04 c -1.905,-0.654 -4.329,-1.276 -7.283,-1.868 -2.949,-0.591 -6.689,-0.886 -11.213,-0.886 -3.738,0 -7.131,0.607 -10.181,1.818 -3.051,1.215 -5.674,2.968 -7.873,5.268 -2.194,2.29 -3.901,5.079 -5.114,8.359 -1.215,3.279 -1.818,6.983 -1.818,11.117 0,3.87 0.508,7.427 1.525,10.672 1.015,3.248 2.509,6.051 4.474,8.414 1.969,2.358 4.376,4.195 7.232,5.506 2.853,1.314 6.116,1.968 9.787,1.968 3.345,0 6.251,-0.475 8.709,-1.425 C -2.9,7.951 -1.115,7.049 0,6.197 v 27.349 l 6.396,1.181 z"/>
        </g>
        <g transform="translate(417.3242,71.377)" id="g1108">
          <path id="path1110" style="fill:#346816;fill-opacity:1;fill-rule:nonzero;stroke:none" d="m 0,0 c 2.493,0 4.673,0.082 6.54,0.248 1.87,0.159 3.459,0.377 4.772,0.636 v 17.905 c -0.72,0.327 -1.867,0.673 -3.443,1.033 -1.572,0.36 -3.737,0.541 -6.49,0.541 -1.577,0 -3.218,-0.115 -4.92,-0.344 -1.708,-0.231 -3.281,-0.723 -4.724,-1.478 -1.444,-0.752 -2.62,-1.786 -3.542,-3.096 -0.918,-1.314 -1.377,-3.05 -1.377,-5.215 0,-1.902 0.312,-3.508 0.934,-4.821 0.624,-1.312 1.51,-2.36 2.657,-3.147 C -8.446,1.478 -7.07,0.9 -5.46,0.542 -3.855,0.18 -2.035,0 0,0 m -0.592,47.417 c 3.346,0 6.181,-0.479 8.509,-1.426 2.328,-0.954 4.215,-2.264 5.658,-3.935 1.44,-1.675 2.493,-3.658 3.149,-5.953 0.652,-2.295 0.983,-4.788 0.983,-7.478 V -3.443 C 17.051,-3.641 16.1,-3.854 14.854,-4.083 13.608,-4.313 12.163,-4.56 10.526,-4.819 8.886,-5.082 7.064,-5.297 5.067,-5.46 c -2,-0.162 -4.049,-0.246 -6.149,-0.246 -2.689,0 -5.166,0.295 -7.429,0.887 -2.26,0.589 -4.231,1.523 -5.902,2.801 -1.671,1.281 -2.983,2.918 -3.938,4.92 -0.95,1.999 -1.422,4.443 -1.422,7.328 0,2.754 0.521,5.118 1.572,7.083 1.05,1.969 2.525,3.592 4.43,4.872 1.898,1.277 4.161,2.211 6.782,2.8 2.627,0.592 5.479,0.887 8.561,0.887 0.921,0 1.887,-0.05 2.903,-0.147 1.017,-0.099 2.002,-0.233 2.954,-0.395 0.95,-0.163 1.771,-0.328 2.459,-0.49 0.687,-0.165 1.159,-0.314 1.424,-0.444 v 3.15 c 0,1.77 -0.132,3.491 -0.394,5.165 -0.262,1.67 -0.837,3.177 -1.718,4.525 -0.89,1.343 -2.136,2.424 -3.741,3.244 -1.607,0.82 -3.723,1.231 -6.345,1.231 -3.737,0 -6.526,-0.263 -8.36,-0.787 -1.839,-0.526 -3.185,-0.951 -4.034,-1.278 l -0.886,5.607 c 1.112,0.525 2.833,1.017 5.166,1.476 2.324,0.456 5.13,0.688 8.408,0.688"/>
        </g>
        <g transform="translate(477.0352,111.4141)" id="g1112">
          <path id="path1114" style="fill:#346816;fill-opacity:1;fill-rule:nonzero;stroke:none" d="m 0,0 c -1.114,0.328 -2.558,0.641 -4.33,0.937 -1.77,0.293 -4.293,0.442 -7.572,0.442 -2.754,0 -5.197,-0.477 -7.329,-1.426 -2.13,-0.952 -3.954,-2.297 -5.461,-4.035 -1.508,-1.738 -2.657,-3.803 -3.443,-6.197 -0.789,-2.394 -1.178,-5.033 -1.178,-7.919 0,-3.346 0.458,-6.215 1.376,-8.608 0.917,-2.395 2.113,-4.346 3.589,-5.853 1.477,-1.511 3.164,-2.61 5.069,-3.296 1.899,-0.691 3.836,-1.033 5.8,-1.033 2.886,0 5.528,0.425 7.92,1.278 2.396,0.854 4.246,1.836 5.559,2.953 z m 0.101,-38.756 c -0.395,-0.336 -0.982,-0.708 -1.772,-1.135 -0.788,-0.426 -1.754,-0.868 -2.902,-1.327 -1.149,-0.46 -2.458,-0.837 -3.934,-1.131 -1.476,-0.296 -3.133,-0.445 -4.972,-0.445 -2.949,0 -5.8,0.461 -8.554,1.378 -2.756,0.92 -5.165,2.361 -7.232,4.329 -2.064,1.968 -3.725,4.511 -4.967,7.623 -1.25,3.116 -1.872,6.903 -1.872,11.364 0,3.605 0.558,6.952 1.672,10.035 1.117,3.081 2.706,5.753 4.774,8.018 2.064,2.262 4.588,4.033 7.571,5.312 2.986,1.279 6.348,1.919 10.086,1.919 4.72,0 8.511,-0.313 11.362,-0.936 2.854,-0.625 5.197,-1.229 7.034,-1.82 v -46.433 c 0,-7.607 -1.968,-13.036 -5.901,-16.281 -3.934,-3.245 -9.873,-4.869 -17.809,-4.869 -3.279,0 -6.245,0.248 -8.901,0.736 -2.654,0.492 -4.935,1.068 -6.838,1.723 l 1.281,5.802 c 1.573,-0.718 3.72,-1.339 6.442,-1.867 2.722,-0.525 5.46,-0.787 8.215,-0.787 6.034,0 10.413,1.164 13.135,3.491 2.72,2.329 4.082,6.313 4.082,11.952 z"/>
        </g>
        <g transform="translate(108.0508,62.0771)" id="g1116">
          <path id="path1118" style="fill:#94ce3c;fill-opacity:1;fill-rule:nonzero;stroke:none" d="m 0,0 c 4.23,0.111 8.463,0.223 12.25,1.41 4.031,1.263 7.811,3.411 11.074,6.214 0,0 0.938,0.811 1.41,1.511 0.37,0.495 0.514,1.167 1.627,2.001 l 1.313,0.558 c 1.506,0.641 3.252,0.371 4.383,0.462 1.129,0.092 1.761,0.101 3.615,0.326 1.853,0.226 4.93,0.667 7.875,1.275 2.945,0.608 5.758,1.382 8.598,2.399 2.839,1.018 5.707,2.279 8.3,3.556 2.594,1.276 4.912,2.568 6.901,3.898 3.883,2.607 7.047,5.745 10.615,10.244 3.461,4.475 6.703,9.705 8.84,14.588 1.066,2.451 1.869,4.878 2.455,7.103 0.586,2.225 0.957,4.247 1.16,6.167 0.205,1.92 0.244,3.74 0.281,5.035 0.037,1.296 0.076,2.068 0.137,2.59 0.061,0.521 0.143,0.791 0.246,0.779 0.104,-0.012 0.227,-0.304 0.377,-1.477 0.152,-1.173 0.33,-3.227 0.379,-5.91 C 91.885,60.048 91.805,56.736 91.539,53.94 91.273,51.144 90.826,48.86 90.182,46.323 89.535,43.786 88.691,40.994 87.504,38.026 86.316,35.058 84.785,31.912 83.178,29.103 79.898,23.48 76.916,19.606 72.582,15.347 70.389,13.202 65.639,8.73 62.92,6.789 58.059,3.32 54.082,-0.031 45.324,-2.865 39.139,-4.867 29.662,-5.352 26.576,-5.315 23.49,-5.28 20.131,-5.116 17.713,-4.841 13.037,-4.244 11.816,-3.569 9.557,-3.154 8.461,-2.917 7.117,-2.641 5.475,-2.126 3.832,-1.611 1.891,-0.858 0,0"/>
        </g>
        <g transform="translate(83.7402,149.5703)" id="g1120">
          <path id="path1122" style="fill:#94ce3c;fill-opacity:1;fill-rule:nonzero;stroke:none" d="m 0,0 c 1,2.418 2.729,5.7 4.926,9.078 2.199,3.377 4.867,6.85 7.777,9.863 2.91,3.014 6.059,5.568 9.772,7.936 3.713,2.367 7.988,4.549 12.029,6.195 4.041,1.647 7.848,2.758 11.918,3.426 4.068,0.668 8.398,0.894 12.512,0.734 4.111,-0.16 8.004,-0.703 11.779,-1.736 3.773,-1.033 7.43,-2.557 9.517,-3.449 2.086,-0.895 2.602,-1.159 3.727,-1.686 1.125,-0.525 2.856,-1.314 4.592,-2.093 -1.113,1.281 -2.24,2.224 -3.111,2.756 -0.379,0.277 -0.774,0.632 -2.975,2.015 -2.201,1.384 -6.211,3.795 -10.703,5.748 -4.494,1.953 -9.475,3.45 -14.295,4.369 -4.82,0.92 -9.483,1.262 -14.199,1.256 -4.715,-0.006 -9.485,-0.361 -13.924,-1.219 -4.438,-0.857 -8.547,-2.218 -12.508,-3.992 -3.963,-1.775 -7.777,-3.963 -11.357,-6.56 -3.581,-2.6 -6.924,-5.61 -10.004,-9.077 -3.08,-3.466 -5.897,-7.389 -8.625,-12.107 -2.729,-4.717 -5.369,-10.228 -7.568,-15.904 2.73,-1.981 5.61,-3.414 8.603,-4.478 0.08,1.071 0.161,2.142 0.385,2.64 0.419,0.814 1.202,0.201 1.837,0.185 2.508,-0.466 5.005,-0.989 7.495,-1.546 0.32,0.693 0.587,1.408 0.859,2.542 C -1.271,-3.97 -1,-2.417 0,0"/>
        </g>
        <g transform="translate(128.2539,114.918)" id="g1124">
          <path id="path1126" style="fill:#346816;fill-opacity:1;fill-rule:nonzero;stroke:none" d="m 0,0 c 10.529,-5.439 9.721,-26.36 6.24,-39.12 -2.951,3.53 -2.349,10.61 -3.84,15.6 -1.531,-0.77 -0.24,-3.69 -1.201,-4.56 -4.289,6.51 -9.91,11.69 -16.08,16.32 -0.01,2.15 -0.549,3.77 -0.959,5.52 -0.849,-0.75 -0.66,-2.54 -0.721,-4.08 -7.638,4.04 -14.679,8.68 -23.039,12 -0.49,0.95 -0.41,2.48 -1.201,3.12 C -41.34,4.33 -41,2.99 -41.279,2.88 c -3.532,0.641 -6.891,3.511 -11.041,4.321 1.83,-1.85 5.791,-3.651 8.881,-5.041 0.33,-0.309 0.148,-1.13 0.478,-1.44 5.211,-0.93 9.272,-3.82 13.441,-6.24 3.52,-2.04 7.19,-3.85 9.6,-6.72 -1.471,-0.13 -3.019,-0.15 -4.56,-0.72 2.121,-1.95 5.8,-0.37 8.16,-1.439 1.461,-0.661 3.349,-2.731 4.8,-4.08 4.309,-4.031 8.5,-9.511 10.799,-15.121 -3.728,0.32 -7.949,1.26 -12,0.48 C -9.33,-35.09 -3.5,-34.62 0,-36.479 1.17,-38.43 1.52,-41.2 1.439,-44.399 -3.77,-48.77 -11.18,-51.78 -20.4,-51.12 c -10.02,0.721 -18.311,4.96 -23.28,10.32 1.09,0.67 3.071,0.45 3.119,2.16 -3.4,1.52 -6.919,2.55 -10.08,4.32 -6.46,3.62 -12.15,7.82 -15.839,14.4 1.7,0.46 3.959,0.36 4.799,1.68 -2.059,2.98 -5.559,4.6 -8.159,7.2 -4.27,4.27 -7.11,10.09 -8.16,16.8 1.039,0.56 2.26,-0.62 3.359,0 0.17,1.47 -1.259,2.131 -1.92,3.361 -3.759,6.99 -3.52,23.4 0,30.481 -0.07,0.388 0.23,0.408 0.241,0.718 0.279,0.041 0.429,-0.049 0.48,-0.24 4.48,-7.92 10.91,-13.889 20.64,-16.559 1.28,0.53 -0.33,2.549 0.479,3.36 8.641,-2.151 18.09,-2.74 23.282,-8.401 0.798,-0.878 0.789,-2.179 2.16,-2.64 1.179,0.5 0.398,2.961 0.959,4.08 9.881,-1.799 16.929,-8.229 21.84,-15.84 1.65,-2.55 2.81,-5.479 4.8,-7.92 1.241,0.6 0.539,3.14 1.68,3.84"/>
        </g>
        <g transform="translate(197.6348,166.6543)" id="g1128">
          <path id="path1130" style="fill:#94ce3c;fill-opacity:1;fill-rule:nonzero;stroke:none" d="m 0,0 c -0.135,0.139 -0.26,0.119 -0.414,0.104 4.199,-7.241 7.465,-15.047 9.406,-22.32 1.942,-7.271 2.563,-14.009 2.301,-20.905 -0.26,-6.898 -1.4,-13.954 -3.486,-20.636 -2.086,-6.682 -5.118,-12.99 -9.01,-18.808 -3.895,-5.819 -8.651,-11.149 -14.076,-15.978 -5.428,-4.829 -11.526,-9.157 -18.047,-12.201 -6.52,-3.045 -13.463,-4.805 -20.498,-5.835 -7.035,-1.03 -14.162,-1.33 -21.971,-0.145 -7.81,1.186 -16.301,3.858 -20.691,5.19 -4.393,1.331 -4.686,1.323 -4.967,1.238 2.06,-1.404 4.283,-2.554 8.185,-4.09 3.905,-1.536 9.491,-3.459 15.612,-4.566 6.119,-1.108 12.775,-1.4 19.57,-1.15 6.795,0.249 13.729,1.04 20.074,3.137 6.346,2.096 12.104,5.496 17.199,8.872 5.094,3.376 9.526,6.728 14.977,12.98 5.451,6.251 11.922,15.403 15.725,26.225 3.804,10.823 4.939,23.318 4.312,32.912 -0.629,9.595 -3.021,16.292 -5.574,21.86 C 6.061,-8.486 3.268,-4.033 0,0"/>
        </g>
      </g>
    </g>
  </g>
</svg>