<?xml version="1.0" encoding="UTF-8"?>
<!-- Generator: Adobe Illustrator 21.1.0, SVG Export Plug-In . SVG Version: 6.00 Build 0)  -->
<svg version="1.1" id="Lager_1" xmlns="http://www.w3.org/2000/svg" xmlns:xlink="http://www.w3.org/1999/xlink" x="0px" y="0px" viewBox="0 0 460.6 460.6" style="enable-background:new 0 0 460.6 460.6;" xml:space="preserve">
<style type="text/css">
	.st0{fill:#FFFFFF;}
	.st1{fill:#FCC10F;}
	.st2{fill:#489BD4;}
	.st3{fill:#EC1A75;}
	.st4{fill:#BBD531;}
</style>
<g id="Layer_1">
	<circle class="st0" cx="230.3" cy="230.3" r="230.3"/>
	<g>
		<path d="M87.8,197c-14.4,67.6,7.6,150.2,74.2,206.9c0,0,14.5,12,21.3,16.4c5.4,3.6,10.6,0.3,6.4-5c-15.4-19.6-20.3-38.3-15.2-59    c2.2,0.8,4.5,1.6,6.7,2.3c60.8,21.6,130.7-0.1,167.9-56.3c43.7-66.2,25.5-155.4-40.7-199.1S153,77.7,109.3,143.9    C98.3,160.5,91.2,178.5,87.8,197z"/>
	</g>
	<g>
		<path class="st1" d="M230.6,91.1c-72.3,0-131,58.3-131.5,130.5h131.5V91.1z"/>
		<path class="st2" d="M362.1,221.6c-0.6-72.2-59.2-130.5-131.5-130.5v130.5H362.1z"/>
		<path class="st3" d="M230.6,354.2V221.6H99.1c0,0.4,0,0.7,0,1.1C99.1,295.3,158,354.2,230.6,354.2z"/>
		<path class="st4" d="M362.1,222.7c0-0.4,0-0.7,0-1.1H230.6v132.6C303.2,354.2,362.1,295.3,362.1,222.7z"/>
	</g>
	<g>
		<g>
			<path d="M397.3,313c2,2.4,1.9,6.7,0.3,9.2c-1.2,1.4-4.5-4.3-4.1-7.1C393.9,312.3,396,311.4,397.3,313z M391.2,312.1     c-4.9,5.8-5.4,12.4,0.2,19.3c8.8,9.9,23.7-3.7,19.9-17.9c-0.4-1.8-2.6-1.6-2.4,0.2c-0.2,5.1-0.6,9.3-3.1,10.9     c-2.3,1.8-7.2,0.8-5.7-0.9c4.8-7.6,2.4-12.1,1.6-13.4C399,306.5,395.3,307.2,391.2,312.1z"/>
		</g>
		<path d="M227.8,394.4c-1.5-2-11.1-0.2-15.8,1.2c-1.2,0.4-2.4,1-1.4,2.8c1,1.7,1.9,3.6,1.9,4.7c0,7.3-2.7,14.1-5,19.5    c-1.6,3.8-3.2,7.7-2,8.7c1,0.9,2.4,0.5,13.9,0.1c1.1,0,1.6-0.2,1.8-1.6c2.1-12.5,6.8-26.2,10.8-26.2c1.2,0.1,1.8,1.5,2.1,1.9    c2.5,6.5,14.8-2.5,12.1-8.9c-2.4-6.3-9.6-5.5-18.4,5.9C228.7,397.1,228.6,395.3,227.8,394.4z"/>
		<path d="M294.3,402.6c4.1,6.8-10.8,20.3-23,15.8c-2.5-0.9-5.8-3.7-5.3-6.8c0.1-1.1,1.1-1.3,1.7-1.4c7.9-2.2,11.6-3.7,15.2-7.2    c6.1-6,6.2-14-1.9-16.6c-3.3-1-15.5-1.4-25.5,6.3c-0.4,0.3-9.7,7.5-8.3,19.3c0.9,7.7,5,12.6,12.3,14.5c4.5,1.1,10.1,1.2,15.9-0.1    c19.5-6.3,20.3-19,25.1-16.3C298.4,407.6,296.4,405.1,294.3,402.6z M275.2,389.5c2.7,0.3,4.3,2.5,3.3,6.2    c-1.3,4.8-11.1,12.5-13.7,10.6C260.9,403.5,268.9,388.8,275.2,389.5z"/>
		<path d="M333.8,380.7c3.2,4.3,1.8,11.9-2.5,16.4c-6.7,7-17.3,6.1-22.3-3.2c-1.7-3.3-2.4-7.5-1.8-11.5c1-5.9,8-11.2,8.6-5.7    c0.6,1.8-0.5,3.4,1,5.6c1.9,2.9,8.3,0.4,9.2-3.7c1.5-9.2-9.1-11.1-20.5-4.9c-10.6,5.7-16.3,17.9-11.2,29c2,2.5,4.1,5,6.1,7.5    c12.6,8.4,31-3.3,35.1-12.6c1.3-2.9,3.3-9.9,6.5-9.4C339.3,385.6,336.5,383.1,333.8,380.7z"/>
		<path d="M366.8,352.7c-9.1-14.5-26.9-8.8-34.6,7.5c-2.6,6-2.1,15,1.6,20.6c2.2,2.2,4.4,4.5,6.6,6.7c5.3,2.1,11.3,1.8,19-2.8    C370.5,378.3,373.6,364.1,366.8,352.7z M363.4,359.3c5.2,13.8-7.9,25.9-17.1,15c-7.7-9.1-4.1-25.4,6.7-24.9    C356.9,349.5,361.3,353.7,363.4,359.3z"/>
		<path d="M376.3,358.7c-2,1.2-2.7,3.7-1.4,5.7c1.4,2,4.1,2.5,6.1,1.2c2-1.2,2.7-3.8,1.3-5.8C381,357.9,378.4,357.5,376.3,358.7z"/>
		<path d="M386.7,354.5c4.9-0.2,10.8-7.1,10.8-11.7c0.3-4.2-3.1-8.1-8.2-6.9c-4.7,1.3-7.6,1.4-8.6,0.5c-2.8-2.3,1.5-6.1,2.5-3.1    s6.3,1,4.7-2.9c-0.6-1.1-1.5-1.9-2.8-2.3c-4.5-1.1-8.8,4.3-10.5,8.7c-2,5.2,2.1,9.5,7.5,8.2c3.4-0.7,5.9-1.5,7.8,0.3    c2.3,1.9-0.6,4.5-2.7,2.8c-2.8-1.7-5.1-1.3-5.9,1.4C380.6,352.4,383.8,354.5,386.7,354.5z"/>
	</g>
	<g>
		<path d="M53,250.1l0.9,5.3l11.8-1.9l1.1,6.7l-32.3,5.2l-1.9-12c-0.3-1.9-0.4-3.6-0.2-5.1s0.6-2.9,1.3-4c0.7-1.2,1.5-2.1,2.7-2.8    c1.1-0.7,2.5-1.2,4.1-1.5c1.2-0.2,2.3-0.2,3.2-0.1s1.9,0.4,2.7,0.7c0.8,0.4,1.6,0.9,2.2,1.5c0.7,0.6,1.3,1.3,1.8,2.2l12.1-9.1    l0.3-0.1l1.2,7.1L53,250.1z M48.4,256.3l-0.9-5.4c-0.1-0.9-0.4-1.6-0.7-2.2c-0.3-0.6-0.7-1.1-1.2-1.5s-1-0.6-1.7-0.7    c-0.6-0.1-1.3-0.1-2,0c-1.5,0.2-2.6,0.9-3.4,1.9c-0.7,1-1,2.4-0.7,4.2l0.9,5.3L48.4,256.3z"/>
		<path d="M48.5,210.9v13h8.8l0.1-15.2h5.4l-0.1,21.9l-32.8-0.1l0.1-21.9h5.5l-0.1,15.1h7.8l0.1-12.9L48.5,210.9z"/>
		<path d="M51.9,192.1l3.1,4.1l9.2,1.6l-1.2,6.6l-32.2-5.6l1.2-6.6l14.6,2.5l-3.5-3.6l-9.2-10l1.4-8.2l12.3,13.9l19.9-8.7l-1.4,7.9    L51.9,192.1z"/>
		<path d="M63,145.5c2.3,0.9,4.3,2,6,3.3c1.6,1.3,2.9,2.8,3.8,4.4c0.9,1.6,1.4,3.4,1.5,5.2c0.1,1.9-0.2,3.8-0.9,5.7    c-0.7,1.9-1.7,3.6-3,4.9c-1.3,1.3-2.8,2.4-4.5,3s-3.6,1-5.7,1s-4.3-0.5-6.7-1.4l-1.3-0.5c-2.3-0.9-4.3-1.9-6-3.3    c-1.6-1.3-2.9-2.8-3.8-4.4c-0.9-1.6-1.4-3.4-1.5-5.2c-0.1-1.9,0.2-3.8,0.9-5.7c0.7-1.9,1.7-3.6,3-4.9c1.3-1.3,2.8-2.4,4.5-3    c1.7-0.7,3.6-1,5.8-0.9c2.1,0,4.3,0.5,6.7,1.4L63,145.5z M59.3,151.4c-3.2-1.2-5.9-1.5-8-1s-3.5,1.9-4.3,4s-0.6,4.1,0.7,5.9    s3.5,3.2,6.7,4.4l1.4,0.5c1.6,0.6,3.1,1,4.4,1.1c1.3,0.2,2.5,0.1,3.6-0.2c1-0.3,1.9-0.7,2.7-1.4c0.7-0.7,1.3-1.5,1.7-2.6    c0.8-2.1,0.5-4.1-0.7-5.8s-3.5-3.2-6.7-4.4L59.3,151.4z"/>
		<path d="M56.7,121.3l24.5,5.6l-15.5-19.8l4.8-7.5l27.6,17.6l-3.6,5.7l-7.5-4.8l-12.7-8.9l15.8,20.5l-2.5,3.9L62.3,128l13.4,7.7    l7.5,4.8l-3.6,5.7L52,128.6L56.7,121.3z"/>
		<path d="M85.4,83.1l22.5,11.3l-10.4-23l6.4-6.1l22.7,23.6l-4.9,4.7l-6.2-6.4l-10.2-11.7l10.5,23.7l-3.3,3.2L89.3,91l11.2,10.6    l6.2,6.4l-4.9,4.7L79.1,89.1L85.4,83.1z"/>
		<path d="M140.7,63.1l-10.9,7l4.7,7.4l12.8-8.2l2.9,4.6l-18.5,11.8l-17.6-27.6l18.4-11.8l2.9,4.6L122.6,59l4.2,6.6l10.9-7    L140.7,63.1z"/>
		<path d="M178.6,61.6l-6.2,2.6l-20.3-14.9l8.2,19.9l-6.2,2.6l-12.6-30.3l6.2-2.6l20.4,14.9l-8.2-19.9l6.2-2.6L178.6,61.6z"/>
		<path d="M184.5,60l-6.6-32l9.9-2c2.2-0.4,4.2-0.5,6.2-0.1c1.9,0.4,3.7,1.1,5.3,2.2c1.6,1.1,2.9,2.5,4,4.2s1.9,3.7,2.4,6l0.3,1.5    c0.5,2.3,0.5,4.4,0.2,6.5c-0.3,2-1,3.8-2,5.4s-2.4,3-4,4.1c-1.7,1.1-3.6,1.9-5.7,2.3L184.5,60z M185.6,31.9l4.4,21.4l3.2-0.7    c2.6-0.5,4.4-1.8,5.4-3.8s1.2-4.6,0.5-7.8l-0.3-1.5c-0.7-3.3-1.9-5.6-3.6-7c-1.7-1.4-3.8-1.8-6.4-1.3L185.6,31.9z"/>
		<path d="M233.4,39.6l-12.9,0.5l0.3,8.8l15.2-0.6l0.2,5.4l-21.9,0.8l-1.2-32.7L235,21l0.2,5.5l-15.1,0.6l0.3,7.8l12.9-0.5    L233.4,39.6z"/>
		<path d="M254.1,43.6l-5.3-0.7l-1.6,11.9l-6.7-0.9l4.2-32.4l12,1.6c1.9,0.2,3.5,0.7,5,1.3c1.4,0.6,2.6,1.4,3.5,2.4    c0.9,1,1.6,2.1,2,3.4c0.4,1.3,0.5,2.7,0.3,4.3c-0.2,1.2-0.4,2.2-0.8,3.1c-0.4,0.9-0.9,1.7-1.5,2.4c-0.6,0.7-1.3,1.2-2.1,1.7    s-1.6,0.8-2.6,1.1l5.3,14.2v0.3l-7.2-0.9L254.1,43.6z M249.4,37.5l5.4,0.7c0.9,0.1,1.7,0.1,2.4,0c0.7-0.1,1.3-0.4,1.8-0.8    s0.9-0.8,1.2-1.4c0.3-0.6,0.5-1.2,0.6-1.9c0.2-1.5-0.1-2.8-0.8-3.8c-0.8-1-2-1.6-3.8-1.8l-5.4-0.7L249.4,37.5z"/>
		<path d="M289.5,57.5l-11.2-3.6l-4.2,5.7l-6.8-2.2L288.9,30l5.9,1.9l1.6,34.9l-6.8-2.2L289.5,57.5z M281.6,49.3l7.8,2.5l-0.1-12.9    L281.6,49.3z"/>
		<path d="M331.3,54.5l-8.9-4.6l-12.5,24.2l-6-3.1l12.6-24.1l-8.8-4.5l2.5-4.8l23.7,12.2L331.3,54.5z"/>
		<path d="M355.2,90.3l-9.9-8.4l-8.7,10.2l-5.1-4.4l21.2-24.9l16.2,13.8l-3.5,4.2l-11.1-9.4l-5.5,6.4l9.9,8.4L355.2,90.3z"/>
		<path d="M380,115.2c-1.9,1.6-3.9,2.8-5.8,3.5c-2,0.8-3.9,1.1-5.7,1c-1.8-0.1-3.6-0.5-5.3-1.3s-3.1-2-4.5-3.6    c-1.3-1.6-2.2-3.3-2.8-5c-0.5-1.8-0.7-3.6-0.4-5.4c0.3-1.8,0.9-3.6,2-5.4c1.1-1.8,2.6-3.5,4.5-5.1l1.1-0.9    c1.9-1.6,3.8-2.8,5.8-3.5c2-0.8,3.9-1.1,5.7-1c1.9,0.1,3.6,0.5,5.3,1.3c1.7,0.8,3.1,2,4.5,3.6c1.3,1.6,2.2,3.3,2.8,5    c0.5,1.8,0.6,3.6,0.4,5.4c-0.3,1.8-1,3.7-2.1,5.4c-1.1,1.8-2.6,3.5-4.5,5.1L380,115.2z M376.8,109c2.6-2.2,4.2-4.3,4.8-6.4    c0.6-2.1,0.1-4-1.3-5.7c-1.5-1.7-3.3-2.5-5.4-2.3c-2.2,0.2-4.5,1.4-7.2,3.6l-1.1,0.9c-1.3,1.1-2.4,2.2-3.2,3.3    c-0.8,1.1-1.3,2.1-1.6,3.2c-0.3,1-0.3,2-0.1,3c0.2,1,0.7,1.9,1.4,2.8c1.5,1.7,3.3,2.5,5.4,2.3c2.2-0.2,4.6-1.4,7.2-3.6L376.8,109z     M382.5,83.8c0.3-0.3,0.6-0.4,1-0.5c0.4-0.1,0.7-0.1,1.1-0.1c0.4,0,0.7,0.2,1.1,0.4c0.4,0.2,0.7,0.5,1,0.8s0.5,0.7,0.6,1.1    c0.1,0.4,0.2,0.8,0.2,1.1c0,0.4-0.1,0.7-0.3,1.1c-0.2,0.3-0.4,0.6-0.7,0.9s-0.6,0.4-1,0.5c-0.4,0.1-0.7,0.1-1.1,0.1    c-0.4,0-0.7-0.2-1.1-0.4c-0.4-0.2-0.7-0.5-1-0.8s-0.5-0.7-0.6-1.1c-0.1-0.4-0.2-0.8-0.2-1.1c0-0.4,0.1-0.7,0.3-1.1    C382,84.3,382.2,84,382.5,83.8z M389.5,92.2c0.3-0.3,0.6-0.4,1-0.5c0.4-0.1,0.7-0.1,1.1-0.1c0.4,0,0.7,0.2,1.1,0.4    c0.4,0.2,0.7,0.5,1,0.8s0.5,0.7,0.6,1.1c0.1,0.4,0.2,0.8,0.2,1.1c0,0.4-0.1,0.7-0.3,1.1c-0.2,0.3-0.4,0.6-0.7,0.9s-0.6,0.4-1,0.5    c-0.4,0.1-0.7,0.1-1.1,0.1c-0.4,0-0.7-0.2-1.1-0.4c-0.4-0.2-0.7-0.5-1-0.8s-0.5-0.7-0.6-1.1c-0.1-0.4-0.2-0.8-0.2-1.1    c0-0.4,0.1-0.7,0.3-1.1C389,92.7,389.2,92.4,389.5,92.2z"/>
		<path d="M387.2,134.2l-2.6-4.7l-10.4,5.8l-3.3-5.9l28.5-16l5.9,10.6c0.9,1.6,1.6,3.2,1.9,4.7c0.4,1.5,0.4,2.9,0.2,4.2    s-0.7,2.5-1.5,3.6s-1.9,2-3.3,2.8c-1,0.6-2,1-3,1.2s-1.9,0.3-2.8,0.2c-0.9-0.1-1.8-0.3-2.6-0.7s-1.6-0.8-2.4-1.4l-8.2,12.7    l-0.3,0.2l-3.5-6.3L387.2,134.2z M389.3,126.9l2.7,4.7c0.4,0.8,0.9,1.4,1.4,1.9s1.1,0.8,1.7,1c0.6,0.2,1.2,0.2,1.8,0.1    c0.6-0.1,1.3-0.3,1.9-0.7c1.3-0.8,2.2-1.7,2.5-2.9s0.1-2.6-0.8-4.2l-2.6-4.7L389.3,126.9z"/>
		<path d="M404.7,169.6l-4.3-12.2l-8.3,2.9l5.1,14.3l-5.1,1.8l-7.4-20.6l30.8-11l7.3,20.6l-5.1,1.8l-5.1-14.3l-7.3,2.6l4.3,12.2    L404.7,169.6z"/>
		<path d="M424.4,200.6l-1.8-9.9l-26.8,4.8l-1.2-6.6l26.8-4.8l-1.7-9.7l5.4-1l4.7,26.2L424.4,200.6z"/>
		<path d="M404.7,225.3l-0.2-11.8l-6.8-2.2l-0.1-7.2l32.9,11.7l0.1,6.2l-32.5,12.7l-0.1-7.2L404.7,225.3z M410,215.2l0.1,8.2    l12.2-4.3L410,215.2z"/>
		<path d="M397.3,263.8c-0.4-0.5-0.8-1.1-1.2-1.8c-0.4-0.8-0.8-1.7-1-2.8c-0.3-1.1-0.4-2.3-0.5-3.7c-0.1-1.4,0.1-3,0.4-4.8    c0.4-2.1,1-3.9,2-5.5s2.2-2.9,3.8-3.9c1.5-1,3.3-1.7,5.4-2c2.1-0.3,4.3-0.3,6.8,0.1l1.9,0.3c2.5,0.4,4.7,1.1,6.5,2.1    s3.3,2.2,4.4,3.6c1.1,1.4,1.9,3,2.3,4.8c0.4,1.8,0.4,3.7,0.1,5.7c-0.4,2.1-0.9,3.9-1.7,5.3c-0.8,1.4-1.7,2.6-2.9,3.5    c-1.1,0.9-2.4,1.5-3.8,1.8c-1.4,0.3-2.9,0.5-4.5,0.4l1.1-6.5c0.8,0,1.6-0.1,2.3-0.2c0.7-0.2,1.3-0.5,1.9-0.9    c0.5-0.4,1-0.9,1.4-1.6c0.4-0.7,0.6-1.5,0.8-2.5c0.4-2.3-0.2-4.1-1.7-5.6s-4-2.5-7.3-3.1l-1.9-0.3c-3.4-0.6-6-0.4-8,0.6    c-1.9,1-3.1,2.7-3.6,5.2c-0.1,0.8-0.2,1.5-0.2,2.1s0,1.1,0.1,1.6c0.1,0.4,0.2,0.8,0.3,1.1c0.1,0.3,0.3,0.6,0.4,0.8l5.6,1l1-6    l4.9,0.8l-2.2,12.7L397.3,263.8z"/>
	</g>
	<circle class="st0" cx="229.8" cy="224.4" r="111.8"/>
</g>
<g>
	<path d="M184.2,253h-42.4v-8.4l20-21.3c2.7-3,4.8-5.6,6.1-7.9c1.3-2.2,2-4.4,2-6.4c0-2.7-0.7-4.9-2.1-6.5c-1.4-1.6-3.4-2.4-5.9-2.4   c-2.8,0-5,1-6.6,2.9c-1.6,1.9-2.4,4.4-2.4,7.5h-12.3c0-3.8,0.9-7.2,2.7-10.3c1.8-3.1,4.3-5.6,7.6-7.3c3.3-1.8,7-2.7,11.2-2.7   c6.4,0,11.3,1.5,14.8,4.6c3.5,3.1,5.3,7.4,5.3,13c0,3.1-0.8,6.2-2.4,9.3c-1.6,3.2-4.3,6.9-8.2,11.1l-14.1,14.8h26.6V253z"/>
	<path d="M233.4,227.4c0,8.6-1.8,15.1-5.3,19.6c-3.5,4.5-8.7,6.8-15.5,6.8c-6.7,0-11.9-2.2-15.5-6.7c-3.6-4.4-5.4-10.8-5.5-19.1   v-11.4c0-8.6,1.8-15.2,5.4-19.7s8.7-6.7,15.5-6.7c6.7,0,11.9,2.2,15.5,6.6s5.4,10.8,5.5,19.1V227.4z M221.1,214.9   c0-5.1-0.7-8.9-2.1-11.2c-1.4-2.3-3.6-3.5-6.6-3.5c-2.9,0-5,1.1-6.4,3.3s-2.1,5.7-2.2,10.4V229c0,5,0.7,8.8,2.1,11.2   c1.4,2.5,3.6,3.7,6.6,3.7c3,0,5.2-1.2,6.5-3.5c1.3-2.4,2-6,2.1-10.8V214.9z"/>
	<path d="M266.2,253H254v-47.4l-14.7,4.5v-9.9l25.6-9.2h1.3V253z"/>
	<path d="M323.2,198l-23.9,55h-13l24-52h-30.8v-9.9h43.7V198z"/>
</g>
</svg>