<svg xmlns="http://www.w3.org/2000/svg" xmlns:xlink="http://www.w3.org/1999/xlink" data-name="Lager 1" height="74" id="Lager_1" viewBox="0 0 273 74" width="273"><defs><style>.cls-1,.cls-3,.cls-5,.cls-7,.cls-9{fill:none;}.cls-2{clip-path:url(#clip-path);}.cls-3,.cls-5{stroke:#223f79;}.cls-4{fill:#223f79;}.cls-5{stroke-width:0.28px;}.cls-6{fill:#11100f;}.cls-7{stroke:#11100f;stroke-width:0.32px;}.cls-7,.cls-9{stroke-miterlimit:10;}.cls-8{fill:#bf9c58;}.cls-9{stroke:#9b7c34;stroke-width:0.32px;}</style><clipPath id="clip-path"><rect class="cls-1" height="74" width="273"/></clipPath></defs><title>Rityta 1</title><g class="cls-2"><g class="cls-2"><polygon class="cls-3" points="0.5 0.5 0.5 0.5 0.5 73.5 272.5 73.5 272.5 0.5 0.5 0.5"/></g><g class="cls-2"><path class="cls-4" d="M184.31,47.59H183l-3.64,15.25H179l-4.09-13.06a7.43,7.43,0,0,0-.58-1.41,1.58,1.58,0,0,0-1.49-.78h-.25v-.4H177v.4h-1.61l3.95,12.64,2.42-10.32a6,6,0,0,0,.19-1.23.94.94,0,0,0-.49-1,3.4,3.4,0,0,0-1.16-.13v-.4h4Z"/><path class="cls-4" d="M193.5,62.07h-3.65v-.39h1.4l-3.11-9.91H186.6l-1.74,7.36a6.35,6.35,0,0,0-.21,1.52.85.85,0,0,0,.71.92l1.31.11v.39h-4v-.39h.94l3.62-15.25h.4l4.06,12.85a15.5,15.5,0,0,0,.74,1.88,1.3,1.3,0,0,0,1.05.52ZM188,51.26l-.73-2.32-.58,2.32Z"/><path class="cls-4" d="M200.65,63h-.42v-.93h-6.57v-.39H195V49.4a3.9,3.9,0,0,0-.15-1.48q-.22-.33-1.38-.33v-.4h4.44v.4h-1.67V61.68h.44c1.68,0,2.76-.38,3.24-1.12a4.55,4.55,0,0,0,.31-2.11V55.68h.42Z"/><path class="cls-4" d="M211.32,47.59h-1.18v11.2a3.87,3.87,0,0,1-.83,2.74,3.37,3.37,0,0,1-2.57,1,3.43,3.43,0,0,1-3.36-1.74A7.06,7.06,0,0,1,203,58V49.4a4.22,4.22,0,0,0-.13-1.45c-.15-.24-.59-.36-1.33-.36v-.4h3.74v.4h-1.07V58.5a6.3,6.3,0,0,0,.2,1.76A2.37,2.37,0,0,0,207,61.93a2.45,2.45,0,0,0,1.79-.71,2.36,2.36,0,0,0,.65-1.25,11,11,0,0,0,.07-1.45V49.4a3.7,3.7,0,0,0-.16-1.5c-.16-.21-.64-.31-1.42-.31v-.4h3.41Z"/><path class="cls-4" d="M221.93,62.07h-3.65v-.39h1.4l-3.11-9.91H215l-1.74,7.36a6.35,6.35,0,0,0-.21,1.52.85.85,0,0,0,.72.92l1.3.11v.39h-4v-.39h.94l3.62-15.25h.4l4.06,12.85a15.5,15.5,0,0,0,.74,1.88,1.3,1.3,0,0,0,1.05.52Zm-5.52-10.81-.73-2.32-.58,2.32Z"/><path class="cls-4" d="M229.75,47.19v5.09h-.39a12.09,12.09,0,0,0-.28-3.12,2,2,0,0,0-1-1.26,4.31,4.31,0,0,0-1.61-.29H226V59.87c0,1,.1,1.5.31,1.65a5.48,5.48,0,0,0,1.84.16v.39h-4.62v-.39h1.26V47.61h-.49a3,3,0,0,0-2,.56,3.06,3.06,0,0,0-.76,2c0,.35-.07,1.07-.07,2.15h-.39V47.19h8.69Z"/><path class="cls-4" d="M234.88,62.07h-3.95v-.39h1.25V49.24a2.74,2.74,0,0,0-.2-1.39c-.13-.17-.56-.26-1.29-.26v-.4h4v.4h-1.26V60a2.85,2.85,0,0,0,.2,1.4c.14.17.56.25,1.27.25Z"/><path class="cls-4" d="M252.23,54.45a7.55,7.55,0,0,1-2.52,5.7,8.3,8.3,0,0,1-5.87,2.36,7.88,7.88,0,0,1-5.64-2.25,7.33,7.33,0,0,1-2.35-5.52,7.47,7.47,0,0,1,2.5-5.69,8.35,8.35,0,0,1,5.89-2.32,8,8,0,0,1,5.66,2.21,7.25,7.25,0,0,1,2.33,5.51m-1.23.38a7.49,7.49,0,0,0-2.1-5.28,6.75,6.75,0,0,0-5.11-2.24,6.36,6.36,0,0,0-4.84,2.1,7.06,7.06,0,0,0-2,5,7.42,7.42,0,0,0,2.15,5.27,6.84,6.84,0,0,0,5.13,2.25,6.27,6.27,0,0,0,4.81-2.1,7.09,7.09,0,0,0,1.93-5"/><path class="cls-4" d="M262.6,47.59h-1.07V62.86h-.39L255.28,50.4v8.82a5,5,0,0,0,.2,1.79c.22.41.73.64,1.52.67v.39h-3.53v-.39h1.16V50.09a6,6,0,0,0-.15-1.59,1.06,1.06,0,0,0-.42-.66,2,2,0,0,0-.87-.25v-.4h1.89l5.8,12.34V50.07a5.32,5.32,0,0,0-.18-1.74c-.2-.47-.68-.71-1.42-.74v-.4h3.32Z"/><path class="cls-4" d="M265,47.19v1.22h-.15a2.58,2.58,0,0,0-.07-.74.56.56,0,0,0-.59-.32h-.09v2.87a.4.4,0,0,0,0,.15c0,.06.19.08.5.08v.14h-1.18v-.14h.31v-3.1h0a1,1,0,0,0-.4.06.52.52,0,0,0-.27.44c0,.08,0,.27,0,.56h-.16V47.2H265Zm3,3.4h-1v-.14h.26V47.79l-.75,1.92-.81-1.85v2a.87.87,0,0,0,.06.39.32.32,0,0,0,.34.15v.14h-.93v-.14h.33V47.91a1.08,1.08,0,0,0-.05-.41c0-.09-.17-.14-.35-.15V47.2h.67l.8,1.81.68-1.81H268v.15h-.31V50.2c0,.13,0,.21.08.24H268Z"/><polygon class="cls-4" points="178.93 65.91 180.56 65.91 180.56 66.3 179.37 66.3 179.37 67.15 180.56 67.15 180.56 67.54 179.37 67.54 179.37 68.96 178.93 68.96 178.93 65.91"/><path class="cls-4" d="M184.28,65.87a1.61,1.61,0,0,1,1.17.44,1.48,1.48,0,0,1,.47,1.13,1.46,1.46,0,0,1-.47,1.12,1.72,1.72,0,0,1-1.2.44,1.62,1.62,0,0,1-1.15-.44,1.59,1.59,0,0,1,0-2.25,1.58,1.58,0,0,1,1.17-.44m0,.41a1.18,1.18,0,0,0-.86.33,1.15,1.15,0,0,0-.34.84,1.12,1.12,0,0,0,.34.82,1.26,1.26,0,0,0,1.7,0,1.14,1.14,0,0,0,.34-.84,1.09,1.09,0,0,0-.34-.82,1.15,1.15,0,0,0-.84-.33m-.45-1a.2.2,0,0,1,.15.06.22.22,0,0,1,.06.15.25.25,0,0,1-.05.15.21.21,0,0,1-.3-.3.2.2,0,0,1,.14-.06m.84,0a.2.2,0,0,1,.15.06.22.22,0,0,1,.06.15.25.25,0,0,1,0,.15.21.21,0,0,1-.3-.3.2.2,0,0,1,.14-.06"/><path class="cls-4" d="M188.22,69v-3H189a1.1,1.1,0,0,1,.73.23.75.75,0,0,1,.28.62.78.78,0,0,1-.14.46.75.75,0,0,1-.38.29,1.36,1.36,0,0,1,.29.26,5.5,5.5,0,0,1,.39.58l.25.39.17.22h-.52l-.14-.2s0,0,0,0l-.09-.12-.13-.22-.15-.24a1.64,1.64,0,0,0-.25-.3.87.87,0,0,0-.2-.16.71.71,0,0,0-.3-.05h-.12V69Zm.56-2.68h-.13v1h.17a1.44,1.44,0,0,0,.45,0,.44.44,0,0,0,.2-.18.53.53,0,0,0,.07-.26.5.5,0,0,0-.08-.26.41.41,0,0,0-.22-.16,1.57,1.57,0,0,0-.46,0"/><polygon class="cls-4" points="192.66 65.91 194.38 65.91 194.38 66.3 193.09 66.3 193.09 67.22 194.34 67.22 194.34 67.61 193.09 67.61 193.09 68.57 194.43 68.57 194.43 68.96 192.66 68.96 192.66 65.91"/><polygon class="cls-4" points="196.39 65.91 198.94 65.91 198.94 66.3 197.88 66.3 197.88 68.96 197.44 68.96 197.44 66.3 196.39 66.3 196.39 65.91"/><path class="cls-4" d="M201.61,65.89h.32L203.29,69h-.45l-.4-.9h-1.3l-.38.9h-.45Zm.66,1.78-.5-1.11-.46,1.11Z"/><path class="cls-4" d="M206.85,67.46h1v1.29a2.71,2.71,0,0,1-1.12.25,1.68,1.68,0,0,1-1.21-.44,1.49,1.49,0,0,1-.45-1.1,1.54,1.54,0,0,1,.47-1.14,1.61,1.61,0,0,1,1.17-.45,1.89,1.89,0,0,1,.49,0,4.35,4.35,0,0,1,.59.21v.45a2.09,2.09,0,0,0-1.08-.32,1.15,1.15,0,0,0-.85.34,1.11,1.11,0,0,0-.34.84,1.13,1.13,0,0,0,.34.85,1.24,1.24,0,0,0,.89.33,2,2,0,0,0,.62-.12h.05v-.64h-.59Z"/><path class="cls-4" d="M211,67.68l-.33-.2a1.44,1.44,0,0,1-.44-.37.74.74,0,0,1-.14-.43.78.78,0,0,1,.25-.59.93.93,0,0,1,.65-.22,1.25,1.25,0,0,1,.7.21v.5a1,1,0,0,0-.71-.32.56.56,0,0,0-.35.1.3.3,0,0,0-.14.25.44.44,0,0,0,.1.26,1.4,1.4,0,0,0,.33.25l.33.2a1,1,0,0,1,.56.85.76.76,0,0,1-.25.6.89.89,0,0,1-.63.23,1.31,1.31,0,0,1-.82-.28v-.55a1,1,0,0,0,.82.45.5.5,0,0,0,.34-.12.35.35,0,0,0,.13-.29c0-.18-.13-.36-.4-.53"/><polygon class="cls-4" points="215.98 65.91 216.41 65.91 215.12 68.97 215.02 68.97 213.72 65.91 214.16 65.91 215.07 68.05 215.98 65.91"/><path class="cls-4" d="M219.47,65.89h.31L221.15,69h-.45l-.4-.9H219l-.38.9h-.45Zm-.24-.66a.2.2,0,0,1,.15.06.22.22,0,0,1,.06.15.2.2,0,0,1-.06.15.18.18,0,0,1-.14.06.21.21,0,0,1-.15-.36.2.2,0,0,1,.14-.06m.89,2.44-.49-1.11-.46,1.11Zm-.05-2.44a.2.2,0,0,1,.15.06.22.22,0,0,1,.06.15.2.2,0,0,1-.06.15.2.2,0,0,1-.14.06.21.21,0,0,1-.15-.36.2.2,0,0,1,.14-.06"/><path class="cls-4" d="M223.25,69v-3H224a1.1,1.1,0,0,1,.73.23.77.77,0,0,1,.27.62.78.78,0,0,1-.13.46.75.75,0,0,1-.38.29,1.36,1.36,0,0,1,.29.26,5.5,5.5,0,0,1,.39.58c.1.17.19.3.25.39l.16.22h-.51l-.14-.2s0,0,0,0l-.09-.12-.13-.22-.15-.24a1.64,1.64,0,0,0-.25-.3.87.87,0,0,0-.2-.16.73.73,0,0,0-.31-.05h-.11V69Zm.56-2.68h-.13v1h.17a1.44,1.44,0,0,0,.45,0,.44.44,0,0,0,.2-.18.53.53,0,0,0,.06-.26.48.48,0,0,0-.07-.26.45.45,0,0,0-.22-.16,1.57,1.57,0,0,0-.46,0"/><path class="cls-4" d="M227.69,69v-3h1a2.1,2.1,0,0,1,1,.19,1.34,1.34,0,0,1,.58.55,1.53,1.53,0,0,1,.21.79,1.43,1.43,0,0,1-.12.58,1.47,1.47,0,0,1-.85.82,1.11,1.11,0,0,1-.32.09,3.28,3.28,0,0,1-.55,0Zm1-2.66h-.55v2.27h.57a2.17,2.17,0,0,0,.51,0,1.46,1.46,0,0,0,.3-.11,1,1,0,0,0,.23-.17,1.15,1.15,0,0,0,.32-.83,1,1,0,0,0-.33-.8,1.07,1.07,0,0,0-.28-.19,1.39,1.39,0,0,0-.31-.1l-.46,0"/><polygon class="cls-4" points="232.79 65.91 234.51 65.91 234.51 66.3 233.22 66.3 233.22 67.22 234.47 67.22 234.47 67.61 233.22 67.61 233.22 68.57 234.56 68.57 234.56 68.96 232.79 68.96 232.79 65.91"/><path class="cls-4" d="M236.79,69v-3h.76a1.1,1.1,0,0,1,.73.23.77.77,0,0,1,.27.62.78.78,0,0,1-.13.46.79.79,0,0,1-.38.29,1.13,1.13,0,0,1,.28.26,4.11,4.11,0,0,1,.4.58c.1.17.19.3.25.39l.16.22h-.52l-.13-.2s0,0,0,0l-.08-.12-.14-.22-.14-.24a2.18,2.18,0,0,0-.25-.3,1.15,1.15,0,0,0-.2-.16.76.76,0,0,0-.31-.05h-.11V69Zm.56-2.68h-.13v1h.16a1.47,1.47,0,0,0,.46,0A.41.41,0,0,0,238,67a.44.44,0,0,0,.07-.26.42.42,0,0,0-.08-.26.42.42,0,0,0-.21-.16,1.62,1.62,0,0,0-.46,0"/><rect class="cls-4" height="3.05" width="0.43" x="241.23" y="65.91"/><polygon class="cls-4" points="246.51 65.91 246.93 65.91 246.93 68.96 246.55 68.96 244.51 66.61 244.51 68.96 244.1 68.96 244.1 65.91 244.46 65.91 246.51 68.28 246.51 65.91"/><path class="cls-4" d="M251,67.46h1v1.29a2.67,2.67,0,0,1-1.11.25,1.66,1.66,0,0,1-1.21-.44,1.46,1.46,0,0,1-.46-1.1,1.54,1.54,0,0,1,.47-1.14,1.64,1.64,0,0,1,1.18-.45,2,2,0,0,1,.49,0,4.29,4.29,0,0,1,.58.21v.45a2,2,0,0,0-1.08-.32,1.18,1.18,0,0,0-1.19,1.18,1.14,1.14,0,0,0,.35.85,1.22,1.22,0,0,0,.88.33,2.14,2.14,0,0,0,.63-.12h0v-.64H251Z"/><path class="cls-4" d="M255.36,65.89h.31L257,69h-.44l-.41-.9h-1.3l-.38.9h-.44Zm.65,1.78-.5-1.11-.45,1.11Z"/><path class="cls-4" d="M259.13,69v-3h.76a1.13,1.13,0,0,1,.74.23.77.77,0,0,1,.27.62.86.86,0,0,1-.13.46.79.79,0,0,1-.38.29,1.33,1.33,0,0,1,.28.26,5.5,5.5,0,0,1,.39.58c.11.17.19.3.26.39l.16.22H261l-.13-.2,0,0-.08-.12-.14-.22-.15-.24a2.22,2.22,0,0,0-.24-.3,1.17,1.17,0,0,0-.21-.16.71.71,0,0,0-.3-.05h-.11V69Zm.57-2.68h-.13v1h.16a1.57,1.57,0,0,0,.46,0,.47.47,0,0,0,.19-.18.44.44,0,0,0,.07-.26.5.5,0,0,0-.08-.26.42.42,0,0,0-.21-.16,1.67,1.67,0,0,0-.46,0"/><line class="cls-5" x1="178.9" x2="261.53" y1="64.23" y2="64.23"/><path class="cls-6" d="M163.37,63v.39h2.26V69h.46V63.39h2.26V63Zm-5.25,0v6h3.34v-.39h-2.88V66.18h2.74v-.39h-2.74v-2.4h2.81V63Zm-3.34,0v2.78h-4V63h-.47v6h.47V66.16h4V69h.47V63Zm-12.37,0H142v6h.46V63.68l2.29,2.81L147,63.68V69h.47V63H147l-2.28,2.79Zm-6.81,3.55,1.29-2.83,1.29,2.83ZM136.77,63,134,69h.49l.94-2.08h2.94l.95,2.08h.49L137,63Zm-6.18,0a1.72,1.72,0,0,0-1.22.46,1.48,1.48,0,0,0-.51,1.13,1.33,1.33,0,0,0,.21.78,1.52,1.52,0,0,0,.51.47c.19.1.53.25,1,.43a2,2,0,0,1,.92.57,1.16,1.16,0,0,1-.14,1.54,1.25,1.25,0,0,1-.9.34,2.7,2.7,0,0,1-1.51-.64v.55a2.78,2.78,0,0,0,1.54.52,1.73,1.73,0,0,0,1.24-.47,1.57,1.57,0,0,0,.5-1.17,1.47,1.47,0,0,0-.22-.85,1.49,1.49,0,0,0-.53-.5c-.21-.11-.54-.25-1-.43a2.08,2.08,0,0,1-.9-.53,1,1,0,0,1-.22-.63,1,1,0,0,1,.37-.81,1.28,1.28,0,0,1,.9-.33,2.71,2.71,0,0,1,1.34.46v-.51a2.74,2.74,0,0,0-1.38-.38m-4.75.07v5.25L121.29,63h-.4v6h.47V63.76L125.92,69h.38V63Zm-11.73-.85a.37.37,0,0,0,.27.12.34.34,0,0,0,.27-.12.37.37,0,0,0,.12-.27.38.38,0,0,0-.12-.28.37.37,0,0,0-.27-.11.4.4,0,0,0-.27.11.41.41,0,0,0-.11.28.4.4,0,0,0,.11.27m1.56,0a.37.37,0,0,0,.27.12.34.34,0,0,0,.27-.12.37.37,0,0,0,.12-.27.38.38,0,0,0-.12-.28.37.37,0,0,0-.27-.11.4.4,0,0,0-.27.11.38.38,0,0,0-.12.28.37.37,0,0,0,.12.27m-2.41,5.74a2.69,2.69,0,0,1,0-3.77,2.62,2.62,0,0,1,1.91-.76A2.61,2.61,0,0,1,117.83,66a2.53,2.53,0,0,1-.77,1.88,2.56,2.56,0,0,1-1.89.76,2.62,2.62,0,0,1-1.91-.76m-.36-4.07a3.05,3.05,0,0,0,0,4.37,3.3,3.3,0,0,0,4.51,0,3,3,0,0,0,0-4.37,3.3,3.3,0,0,0-4.51,0M107.09,63v6h3.43v-.39h-3V63Zm-6.91,4h4.51v-.28h-4.51Zm-6-4v.39h2.25V69h.47V63.39h2.25V63ZM89,63v6h3.34v-.39H89.43V66.18h2.74v-.39H89.43v-2.4h2.81V63Zm-7.14,0v.39h2.25V69h.47V63.39H86.8V63Zm-2.62,6h.46V63h-.46Zm-5.58-6v6h3.43v-.39h-3V63Zm-3.32,6h.47V63h-.47Zm-4.69-2.83c1.18,0,1.77.41,1.77,1.22a1.09,1.09,0,0,1-.4.89,1.76,1.76,0,0,1-1.16.33H64.58V66.18Zm-.41-2.79c1.1,0,1.66.4,1.66,1.2s-.55,1.19-1.64,1.19h-.65V63.39ZM64.12,69h1.76a2.34,2.34,0,0,0,1.47-.43,1.42,1.42,0,0,0,.54-1.17c0-.81-.46-1.32-1.39-1.52a1.46,1.46,0,0,0,.87-1.33,1.37,1.37,0,0,0-.51-1.14A2.28,2.28,0,0,0,65.37,63H64.12Zm-6.36-2.46,1.29-2.83,1.29,2.83ZM58.92,63,56.15,69h.49l.94-2.08h2.94L61.47,69H62L59.18,63Zm-8.5,0v.39h2.26V69h.46V63.39H55.4V63Zm-3.5-.07a1.72,1.72,0,0,0-1.22.46,1.48,1.48,0,0,0-.51,1.13,1.33,1.33,0,0,0,.21.78,1.59,1.59,0,0,0,.5.47c.2.1.54.25,1,.43a2,2,0,0,1,.92.57,1.17,1.17,0,0,1,.23.69,1.1,1.1,0,0,1-.37.85,1.25,1.25,0,0,1-.9.34A2.7,2.7,0,0,1,45.27,68v.55a2.78,2.78,0,0,0,1.54.52,1.73,1.73,0,0,0,1.24-.47,1.57,1.57,0,0,0,.5-1.17,1.47,1.47,0,0,0-.22-.85,1.49,1.49,0,0,0-.53-.5c-.21-.11-.54-.25-1-.43a2.1,2.1,0,0,1-.89-.53,1,1,0,0,1-.22-.63,1,1,0,0,1,.36-.81,1.32,1.32,0,0,1,.91-.33,2.74,2.74,0,0,1,1.34.46v-.51a2.74,2.74,0,0,0-1.38-.38M38.8,67h4.5v-.28H38.8Zm-5.15-4v6H37v-.39H34.11V66.18h2.74v-.39H34.11v-2.4h2.81V63Zm-5.82.39a2.76,2.76,0,0,1,2,.73A2.54,2.54,0,0,1,30.58,66a2.46,2.46,0,0,1-.78,1.9,2.76,2.76,0,0,1-1.94.71H26.17V63.39ZM25.71,69h2.18a3.17,3.17,0,0,0,2.36-.85,3.21,3.21,0,0,0,0-4.32A3.29,3.29,0,0,0,27.81,63h-2.1Zm-5.15-5.62a1.93,1.93,0,0,1,1.18.31,1.12,1.12,0,0,1,0,1.73,1.82,1.82,0,0,1-1.16.31h-1V63.39ZM19.12,69h.46V66.13h.82a1.52,1.52,0,0,1,.85.2,4,4,0,0,1,.82,1l1,1.65h.55L22.3,66.93a2.59,2.59,0,0,0-.8-.91,1.5,1.5,0,0,0,1.15-1.46,1.4,1.4,0,0,0-.51-1.14A2.29,2.29,0,0,0,20.66,63H19.12ZM13,62.15a.34.34,0,0,0,.27.12.41.41,0,0,0,.39-.39.38.38,0,0,0-.12-.28.4.4,0,0,0-.27-.11.37.37,0,0,0-.27.11.38.38,0,0,0-.12.28.37.37,0,0,0,.12.27m1.56,0a.34.34,0,0,0,.27.12.37.37,0,0,0,.27-.12.4.4,0,0,0,.11-.27.41.41,0,0,0-.11-.28.4.4,0,0,0-.27-.11.37.37,0,0,0-.27.11.38.38,0,0,0-.12.28.37.37,0,0,0,.12.27m-1.81,4.4,1.29-2.83,1.3,2.83ZM13.93,63,11.15,69h.49l.95-2.08h2.93L16.47,69H17L14.18,63ZM9.74,63,7.62,68.08,5.5,63H5l2.52,6.07h.14L10.2,63Z"/></g><polygon class="cls-6" points="47.67 8.62 47.67 16.21 40.37 16.21 40.37 18.15 47.67 18.15 47.67 25.8 49.74 25.8 49.74 18.15 57.05 18.15 57.05 16.21 49.74 16.21 49.74 8.62 47.67 8.62"/><polygon class="cls-7" points="49.74 8.62 49.74 16.21 57.05 16.21 57.05 18.15 49.74 18.15 49.74 25.8 47.67 25.8 47.67 18.15 40.37 18.15 40.37 16.21 47.67 16.21 47.67 8.62 49.74 8.62"/><path class="cls-6" d="M41.22,9.81H37.29l-11,46.33H25L12.64,16.46a23,23,0,0,0-1.76-4.27A4.79,4.79,0,0,0,6.36,9.81H5.61V8.61H19.19v1.2H14.33l12,38.4,7.3-31.34a18.88,18.88,0,0,0,.6-3.73c0-1.5-.5-2.47-1.49-2.92a10.14,10.14,0,0,0-3.51-.41V8.61h12v1.2"/><path class="cls-7" d="M41.22,9.81H37.29l-11,46.33H25L12.64,16.46a23,23,0,0,0-1.76-4.27A4.79,4.79,0,0,0,6.36,9.81H5.61V8.61H19.19v1.2H14.33l12,38.4,7.3-31.34a18.88,18.88,0,0,0,.6-3.73c0-1.5-.5-2.47-1.49-2.92a10.14,10.14,0,0,0-3.51-.41V8.61h12v1.2"/><polygon class="cls-8" points="49.29 8.16 49.29 15.76 56.59 15.76 56.59 17.7 49.29 17.7 49.29 25.35 47.22 25.35 47.22 17.7 39.92 17.7 39.92 15.76 47.22 15.76 47.22 8.16 49.29 8.16"/><polygon class="cls-9" points="49.29 8.16 49.29 15.76 56.59 15.76 56.59 17.7 49.29 17.7 49.29 25.35 47.22 25.35 47.22 17.7 39.92 17.7 39.92 15.76 47.22 15.76 47.22 8.16 49.29 8.16"/><path class="cls-8" d="M40.77,9.36H36.84l-11,46.33H24.55L12.19,16a24,24,0,0,0-1.76-4.27A4.79,4.79,0,0,0,5.9,9.36H5.16V8.16H18.74v1.2H13.88l12,38.4,7.3-31.35a18.67,18.67,0,0,0,.6-3.73c0-1.49-.5-2.46-1.49-2.91a10.17,10.17,0,0,0-3.52-.41V8.16h12v1.2"/><path class="cls-9" d="M40.77,9.36H36.84l-11,46.33H24.55L12.19,16a24,24,0,0,0-1.76-4.27A4.79,4.79,0,0,0,5.9,9.36H5.16V8.16H18.74v1.2H13.88l12,38.4,7.3-31.35a18.67,18.67,0,0,0,.6-3.73c0-1.49-.5-2.46-1.49-2.91a10.17,10.17,0,0,0-3.52-.41V8.16h12v1.2"/></g><text y="20%"><tspan style="font-family: 'Arial'; font-size: 11px;" text-anchor="left" x="35%">En Renare Vardag i Stockholm</tspan><tspan dy="11px" style="font-family: 'Arial'; font-size: 11px;" text-anchor="left" x="35%">AB</tspan><tspan dy="10px" style="font-family: 'Arial'; font-size: 7px;" text-anchor="left" x="35%">Org.nr: 556847-2038</tspan></text><text><tspan fill="#D09A55" style="font-family: 'Palatino Linotype'; font-size: 15px;" x="20%" y="76%">2020</tspan></text></svg>